<svg id="Layer_1" data-name="Layer 1" xmlns="http://www.w3.org/2000/svg" viewBox="0 0 250 250"><defs><style>.cls-1{fill:#fff;}.cls-2{fill:#1b75bb;}</style></defs><rect class="cls-1" width="250" height="250" rx="43.81"/><rect class="cls-2" x="8.61" y="8.61" width="232.78" height="232.78" rx="31.29"/><path class="cls-1" d="M48.78,42.65c14.18,0,23.83,10.63,23.83,26.2V71.6H37.25c.79,6,5.62,11,13.69,11,4.44,0,9.65-1.77,12.71-4.73L69.16,86c-4.82,4.43-12.21,6.6-19.6,6.6-14.47,0-25.4-9.75-25.4-25C24.16,53.78,34.3,42.65,48.78,42.65ZM37.06,63.13H60.5C60.2,58.6,57.05,52.6,48.78,52.6,41,52.6,37.65,58.4,37.06,63.13Z" transform="translate(0 0)"/><path class="cls-1" d="M75.47,29.35A7.49,7.49,0,1,1,83,36.84,7.54,7.54,0,0,1,75.47,29.35Zm1.28,14.48H89.26V91.4H76.75Z" transform="translate(0 0)"/><path class="cls-1" d="M98,76.43a27.22,27.22,0,0,0,16.45,6.5c5.41,0,8-1.87,8-4.83,0-3.35-4.13-4.53-9.55-5.61-8.17-1.58-18.71-3.55-18.71-14.87,0-8,7-15,19.5-15a29.88,29.88,0,0,1,19.1,6.5l-4.92,8.57c-2.85-3.06-8.27-5.52-14.08-5.52-4.53,0-7.49,1.67-7.49,4.43,0,3,3.74,4,9.07,5.12,8.16,1.58,19.1,3.75,19.1,15.56,0,8.77-7.39,15.27-20.58,15.27-8.28,0-16.25-2.76-21.28-7.39Z" transform="translate(0 0)"/><path class="cls-1" d="M167.35,86.47c-3.25,3.84-8.86,6.11-15.07,6.11-7.58,0-16.54-5.12-16.54-15.76,0-11.13,9-15.17,16.54-15.17,6.31,0,11.92,2,15.07,5.81V60.87c0-4.83-4.14-8-10.44-8A20,20,0,0,0,143,58.5l-4.73-8.37a31.21,31.21,0,0,1,20.78-7.48c10.83,0,20.78,4.33,20.78,18V91.4H167.35Zm0-12.41c-2.07-2.75-6-4.13-10-4.13-4.93,0-9,2.65-9,7.19s4,7,9,7c4,0,8-1.38,10-4.14Z" transform="translate(0 0)"/><path class="cls-1" d="M30.28,185.67H40.46V188H32.88v3.86h7.43v2.29H32.88v4.13h7.58v2.29H30.28Z" transform="translate(0 0)"/><path class="cls-1" d="M50.1,199.07a4.37,4.37,0,0,1-3.46,1.74c-2.76,0-4.79-2.1-4.79-5.64s2-5.66,4.79-5.66a4.32,4.32,0,0,1,3.46,1.76v-5.6h2.34v14.87H50.1Zm0-6a3.55,3.55,0,0,0-2.79-1.45c-1.85,0-3,1.5-3,3.59s1.18,3.57,3,3.57a3.53,3.53,0,0,0,2.79-1.43Z" transform="translate(0 0)"/><path class="cls-1" d="M62.18,199.12a5.14,5.14,0,0,1-3.81,1.69c-2.32,0-3.45-1.2-3.45-3.41v-7.62h2.34v6.77c0,1.67.85,2.19,2.16,2.19a3.55,3.55,0,0,0,2.76-1.41v-7.55h2.34v10.76H62.18Z" transform="translate(0 0)"/><path class="cls-1" d="M71.91,189.51A4.83,4.83,0,0,1,76,191.42l-1.53,1.43A2.88,2.88,0,0,0,72,191.58a3.25,3.25,0,0,0-3.25,3.57c0,2.1,1.29,3.59,3.25,3.59a3,3,0,0,0,2.48-1.27L76,198.89a4.81,4.81,0,0,1-4.12,1.92,5.65,5.65,0,0,1,0-11.3Z" transform="translate(0 0)"/><path class="cls-1" d="M84.1,199.38a4.52,4.52,0,0,1-3.47,1.43,3.58,3.58,0,0,1-3.75-3.56,3.48,3.48,0,0,1,3.75-3.51,4.42,4.42,0,0,1,3.47,1.39v-1.61c0-1.25-1-2-2.51-2a4.38,4.38,0,0,0-3.19,1.37l-1-1.63A6.42,6.42,0,0,1,82,189.51c2.38,0,4.47,1,4.47,3.9v7.13H84.1Zm0-2.92a3.15,3.15,0,0,0-2.56-1.11,2,2,0,1,0,0,3.86,3.12,3.12,0,0,0,2.56-1.12Z" transform="translate(0 0)"/><path class="cls-1" d="M89.39,198.05v-6.22H87.61v-2.05h1.78v-2.95h2.34v2.95h2.19v2.05H91.73v5.64c0,.73.36,1.27,1,1.27a1.49,1.49,0,0,0,1-.38l.56,1.76a3.07,3.07,0,0,1-2.2.69A2.48,2.48,0,0,1,89.39,198.05Z" transform="translate(0 0)"/><path class="cls-1" d="M95.19,186.54a1.45,1.45,0,0,1,2.9,0,1.45,1.45,0,0,1-2.9,0Zm.29,3.24h2.34v10.76H95.48Z" transform="translate(0 0)"/><path class="cls-1" d="M99.63,195.15a5.54,5.54,0,1,1,5.52,5.66A5.39,5.39,0,0,1,99.63,195.15Zm8.65,0c0-1.9-1.12-3.57-3.13-3.57s-3.09,1.67-3.09,3.57,1.11,3.59,3.09,3.59S108.28,197.07,108.28,195.15Z" transform="translate(0 0)"/><path class="cls-1" d="M119.78,193.81c0-1.67-.84-2.23-2.16-2.23a3.52,3.52,0,0,0-2.76,1.45v7.51h-2.34V189.78h2.34v1.47a5.07,5.07,0,0,1,3.79-1.74c2.31,0,3.48,1.25,3.48,3.46v7.57h-2.35Z" transform="translate(0 0)"/><path class="cls-1" d="M129.85,185.67h2.6v14.87h-2.6Z" transform="translate(0 0)"/><path class="cls-1" d="M142.26,193.81c0-1.67-.85-2.23-2.16-2.23a3.52,3.52,0,0,0-2.76,1.45v7.51H135V189.78h2.35v1.47a5.06,5.06,0,0,1,3.78-1.74c2.32,0,3.48,1.25,3.48,3.46v7.57h-2.34Z" transform="translate(0 0)"/><path class="cls-1" d="M147.21,197.44a5.56,5.56,0,0,0,3.66,1.52c1.41,0,2.12-.51,2.12-1.31s-1.14-1.28-2.45-1.57c-1.85-.4-4.06-.89-4.06-3.3,0-1.76,1.52-3.27,4.24-3.27a6.16,6.16,0,0,1,4.19,1.51l-1,1.66a4.35,4.35,0,0,0-3.19-1.3c-1.23,0-2,.45-2,1.2s1.07,1.12,2.34,1.41c1.87.4,4.17.93,4.17,3.48,0,1.89-1.58,3.34-4.48,3.34a6.54,6.54,0,0,1-4.61-1.67Z" transform="translate(0 0)"/><path class="cls-1" d="M157.51,198.05v-6.22h-1.78v-2.05h1.78v-2.95h2.35v2.95H162v2.05h-2.18v5.64c0,.73.35,1.27,1,1.27a1.52,1.52,0,0,0,1.05-.38l.56,1.76a3.1,3.1,0,0,1-2.21.69A2.49,2.49,0,0,1,157.51,198.05Z" transform="translate(0 0)"/><path class="cls-1" d="M163.31,186.54a1.45,1.45,0,0,1,2.9,0,1.45,1.45,0,0,1-2.9,0Zm.29,3.24H166v10.76H163.6Z" transform="translate(0 0)"/><path class="cls-1" d="M168.89,198.05v-6.22h-1.78v-2.05h1.78v-2.95h2.34v2.95h2.19v2.05h-2.19v5.64c0,.73.36,1.27,1,1.27a1.51,1.51,0,0,0,1-.38l.56,1.76a3.1,3.1,0,0,1-2.21.69A2.48,2.48,0,0,1,168.89,198.05Z" transform="translate(0 0)"/><path class="cls-1" d="M182.25,199.12a5.18,5.18,0,0,1-3.82,1.69c-2.32,0-3.45-1.2-3.45-3.41v-7.62h2.34v6.77c0,1.67.85,2.19,2.16,2.19a3.59,3.59,0,0,0,2.77-1.41v-7.55h2.34v10.76h-2.34Z" transform="translate(0 0)"/><path class="cls-1" d="M187.53,198.05v-6.22h-1.78v-2.05h1.78v-2.95h2.34v2.95h2.19v2.05h-2.19v5.64c0,.73.36,1.27,1,1.27a1.54,1.54,0,0,0,1-.38l.55,1.76a3.08,3.08,0,0,1-2.21.69A2.48,2.48,0,0,1,187.53,198.05Z" transform="translate(0 0)"/><path class="cls-1" d="M198.41,189.51c3.24,0,5.31,2.47,5.31,5.86v.56H195.4a3.26,3.26,0,0,0,3.44,3,4.55,4.55,0,0,0,3-1.18l1.07,1.54a6.25,6.25,0,0,1-4.37,1.56,5.65,5.65,0,0,1-.18-11.3Zm-3,4.77h6.06a2.88,2.88,0,0,0-3-2.86A3,3,0,0,0,195.38,194.28Z" transform="translate(0 0)"/><path class="cls-1" d="M30.77,217a6.39,6.39,0,0,0,4.7,2.05c2.14,0,3-1.05,3-2,0-1.34-1.58-1.74-3.39-2.21-2.43-.6-5.29-1.31-5.29-4.46,0-2.45,2.17-4.34,5.42-4.34A7.71,7.71,0,0,1,40.77,208L39.28,210a6,6,0,0,0-4.3-1.7c-1.54,0-2.52.74-2.52,1.86s1.52,1.53,3.28,2c2.45.63,5.37,1.38,5.37,4.61,0,2.48-1.74,4.6-5.75,4.6a7.93,7.93,0,0,1-6-2.37Z" transform="translate(0 0)"/><path class="cls-1" d="M50.17,219.62a5.17,5.17,0,0,1-3.82,1.7c-2.32,0-3.45-1.21-3.45-3.41v-7.63h2.34v6.78c0,1.67.85,2.18,2.16,2.18a3.61,3.61,0,0,0,2.77-1.4v-7.56H52.5v10.77H50.17Z" transform="translate(0 0)"/><path class="cls-1" d="M55,225.15V210.28h2.34v1.47A4.32,4.32,0,0,1,60.78,210c2.79,0,4.77,2.1,4.77,5.64s-2,5.67-4.77,5.67a4.24,4.24,0,0,1-3.46-1.77v5.6Zm5.11-13.06a3.55,3.55,0,0,0-2.77,1.44v4.26a3.59,3.59,0,0,0,2.77,1.45c1.85,0,3-1.49,3-3.59S61.94,212.09,60.09,212.09Z" transform="translate(0 0)"/><path class="cls-1" d="M67.36,225.15V210.28H69.7v1.47A4.29,4.29,0,0,1,73.16,210c2.78,0,4.77,2.1,4.77,5.64s-2,5.67-4.77,5.67a4.24,4.24,0,0,1-3.46-1.77v5.6Zm5.1-13.06a3.51,3.51,0,0,0-2.76,1.44v4.26a3.55,3.55,0,0,0,2.76,1.45c1.85,0,3-1.49,3-3.59S74.31,212.09,72.46,212.09Z" transform="translate(0 0)"/><path class="cls-1" d="M79.07,215.65a5.54,5.54,0,1,1,5.52,5.67A5.39,5.39,0,0,1,79.07,215.65Zm8.65,0c0-1.89-1.12-3.56-3.13-3.56s-3.1,1.67-3.1,3.56,1.12,3.59,3.1,3.59S87.72,217.57,87.72,215.65Z" transform="translate(0 0)"/><path class="cls-1" d="M92,210.28H94.3v1.58A4.59,4.59,0,0,1,97.8,210v2.31a4,4,0,0,0-.74-.06,3.71,3.71,0,0,0-2.76,1.43v7.33H92Z" transform="translate(0 0)"/><path class="cls-1" d="M99.6,218.55v-6.22H97.82v-2.05H99.6v-2.94H102v2.94h2.18v2.05H102V218c0,.74.35,1.27,1,1.27a1.52,1.52,0,0,0,1-.38l.55,1.76a3.05,3.05,0,0,1-2.2.7A2.49,2.49,0,0,1,99.6,218.55Z" transform="translate(0 0)"/><path class="cls-1" d="M120.36,218.2h-7l-1.1,2.85h-2.85l5.84-14.87h3.26l5.84,14.87h-2.86Zm-6.31-2.3h5.58l-2.79-7.51Z" transform="translate(0 0)"/><path class="cls-1" d="M130.22,210a4.81,4.81,0,0,1,4.12,1.92l-1.53,1.43a2.88,2.88,0,0,0-2.48-1.27,3.24,3.24,0,0,0-3.25,3.56c0,2.1,1.29,3.59,3.25,3.59a2.93,2.93,0,0,0,2.48-1.27l1.53,1.43a4.83,4.83,0,0,1-4.12,1.92,5.66,5.66,0,0,1,0-11.31Z" transform="translate(0 0)"/><path class="cls-1" d="M136.31,218.55v-6.22h-1.78v-2.05h1.78v-2.94h2.34v2.94h2.19v2.05h-2.19V218c0,.74.36,1.27,1,1.27a1.51,1.51,0,0,0,1-.38l.56,1.76a3.08,3.08,0,0,1-2.21.7A2.49,2.49,0,0,1,136.31,218.55Z" transform="translate(0 0)"/><path class="cls-1" d="M142.11,207.05a1.46,1.46,0,0,1,1.45-1.45,1.45,1.45,0,0,1,0,2.9A1.46,1.46,0,0,1,142.11,207.05Zm.29,3.23h2.34v10.77H142.4Z" transform="translate(0 0)"/><path class="cls-1" d="M145.65,210.28h2.5l3.14,8.07,3.15-8.07H157l-4.4,10.77H150Z" transform="translate(0 0)"/><path class="cls-1" d="M157.58,207.05A1.45,1.45,0,1,1,159,208.5,1.46,1.46,0,0,1,157.58,207.05Zm.29,3.23h2.34v10.77h-2.34Z" transform="translate(0 0)"/><path class="cls-1" d="M163.16,218.55v-6.22h-1.79v-2.05h1.79v-2.94h2.34v2.94h2.18v2.05H165.5V218c0,.74.36,1.27,1,1.27a1.52,1.52,0,0,0,1-.38l.56,1.76a3.1,3.1,0,0,1-2.21.7A2.49,2.49,0,0,1,163.16,218.55Z" transform="translate(0 0)"/><path class="cls-1" d="M168.59,210.28h2.46l3.17,8.05h.05l3.11-8.05h2.52l-5.38,13.16c-.19.49-.39.94-.59,1.34a4,4,0,0,1-.73,1,2.92,2.92,0,0,1-1,.67,4.81,4.81,0,0,1-1.6.19,7.85,7.85,0,0,1-1-.06,3.37,3.37,0,0,1-.93-.25l.26-1.94a3.39,3.39,0,0,0,1.27.26,2.32,2.32,0,0,0,.84-.13,1.81,1.81,0,0,0,.59-.38,2.43,2.43,0,0,0,.41-.58c.11-.22.22-.48.33-.76l.6-1.78Z" transform="translate(0 0)"/></svg>