<svg xmlns="http://www.w3.org/2000/svg" viewBox="0 0 135.61 166.32"><defs><style>.cls-1{fill:none;stroke:#44ad52;stroke-miterlimit:10;stroke-width:12px;}</style></defs><g id="Layer_2" data-name="Layer 2"><path class="cls-1" d="M76.8,111H70.3A7.34,7.34,0,0,1,63,103.63v-34a7.34,7.34,0,0,1,7.34-7.34h34a7.34,7.34,0,0,1,7.34,7.34v34a7.34,7.34,0,0,1-7.34,7.34H95.9" transform="translate(-56.96 -56.28)"/><rect class="cls-1" x="80.92" y="6" width="48.69" height="48.69" rx="7.34"/></g><g id="Layer_3" data-name="Layer 3"><path class="cls-1" d="M94.75,144.51V98C86,82.24,77.66,98,77.66,98l-.75,62.46c-4.65,1.67-13.2,8.92-10.41,21.93s22.86,36.24,22.86,36.24" transform="translate(-56.96 -56.28)"/><path class="cls-1" d="M113.34,144.14v-9.29s-9.48-14.69-18.59,0" transform="translate(-56.96 -56.28)"/><path class="cls-1" d="M130.25,149.34V137.08s-9.11-11.34-16.91,0" transform="translate(-56.96 -56.28)"/><path class="cls-1" d="M133.23,217.56s14.68-22.12,14.49-38.1,0-33.09,0-33.09-6.7-12.27-17.48-2.23" transform="translate(-56.96 -56.28)"/></g></svg>