<svg id="Layer_1" data-name="Layer 1" xmlns="http://www.w3.org/2000/svg" viewBox="0 0 180.67 225.81"><defs><style>.cls-1{fill:#fabd9e;}.cls-2{fill:#231f20;}.cls-3{fill:#fff;}.cls-4{fill:#ec1c24;}</style></defs><path class="cls-1" d="M85.82,96.65c-.45,2.68-.52,3.53-1.47,3.63s-1.78-1.22-1.78-1.22v.28c-.59,5.11.29,14-.41,19-.14.13-.28.27-.41.41-.52-.22-.38-1.08-.82-1.37a6.56,6.56,0,0,0-.41-1.78c0-.24.13-.68-.28-.55C80.52,131,85,143.52,92.15,153.77A43.72,43.72,0,0,0,105,166.37c5.37,3.29,11.63,6.11,19,6.43a39.69,39.69,0,0,0,23.27-5.88,42.23,42.23,0,0,0,12.46-11.78c8.32-11.2,13.82-25.26,12.59-44.08-.31.24-.53.57-1.1.55-.35.42,0,1.55-.68,1.64-.3-.11-.48-.33-.41-.82,0-.72,0-1.39-.41-1.64-.23-.27-.16-.84-.41-1.1-.46-3.7.38-8-.14-11.77-.51-.09-.34.48-.55.69-.6.49-.81,1.38-1.5,1.78-.57-1.85,0-3.43-.41-5.48a22.13,22.13,0,0,0-.55-2.74,10.24,10.24,0,0,0-.55-3.15,6.27,6.27,0,0,0-.41-2c-.07-.84-.34-1.48-.41-2.33a6.28,6.28,0,0,0-.41-1.78V81.77a21.09,21.09,0,0,0-3.15-4c-.33-.35-.68-1.11-1.09-.82a16,16,0,0,0,1.37,3.15c.3.28.21,1,.68,1.09,0,.67.4,1,.41,1.64a2.5,2.5,0,0,0,.41,1.37,3.72,3.72,0,0,0,.41,1.51,5.78,5.78,0,0,0,.41,1.92,27.63,27.63,0,0,1,0,5.75,4.35,4.35,0,0,0-.41,1.36c-.37,1.44-1.25,2.71-2.6,2.47-1.94-.34-.66-3.74-1.37-5.48a6.2,6.2,0,0,0-.41-1.78,2.42,2.42,0,0,0-.41-1.37c-1.31-4.44-3.2-8.29-4.79-12.45-.12-.34-.13-.79-.55-.83.24,1,.13,2.34.41,3.29a46.47,46.47,0,0,1,0,6.57c-.2.85-.35,1.75-.55,2.6-.76.9-.71,2.41-2,2.47-2.57.11-1.39-4.87-2.05-7.26a11.9,11.9,0,0,0-.41-2.6,7.24,7.24,0,0,0-.41-1.92,22.7,22.7,0,0,0-.69-2.46v-.55c-2.11.25-1.77-2-2.87-2.74a10,10,0,0,0-.41,2.88,6.78,6.78,0,0,0-.28,1.78,7.84,7.84,0,0,1-.41,2.6c-.47.17-.47.8-.54,1.37a1.94,1.94,0,0,0-.55,1.37c-.15,1.41-1.7,2.29-2.33.68-.21-.75-.22-1.7-.41-2.46V76.84a25.23,25.23,0,0,0,0-5.89,31.86,31.86,0,0,0-.55-5.74,6.77,6.77,0,0,0-.27-2.06,2.93,2.93,0,0,0-.82-.27c-.22-.61-.4,1-.41,1.5a6.28,6.28,0,0,0-.41,1.78,1.83,1.83,0,0,1-1.51,1.78c.58,3.86.21,8.66-.14,12.46a12.88,12.88,0,0,0-.41,2.46,15.93,15.93,0,0,0-.55,2.19c-.5.87-.88,1.86-1.91,2.19a1.18,1.18,0,0,1-.69-1.09c-.2-1.53-.17-3.29-.41-4.79a70.83,70.83,0,0,0-.54-8.08V72.6c-.45-.24-1.2-.18-1.1-1a3.72,3.72,0,0,0-.41-1.51,10.66,10.66,0,0,0-.55-1.91,16.38,16.38,0,0,0-.55-3.15v-1c-.67.21-1.21-1-1.36-.41v.14c-.42,3-1,7.47,0,10.26.09.73.65,1,.82,1.65a4.44,4.44,0,0,1,0,2c-.1.63-.56.91-1,1.23a12.65,12.65,0,0,1-.41,2.19c-2.2,1.5-3.33-2.27-4.11-4-.18-.45-.12-1.16-.41-1.5a4.7,4.7,0,0,0-.41-1.51,17.77,17.77,0,0,0-.41-2.46V67.4a12.41,12.41,0,0,0,.41-2.33,4.91,4.91,0,0,0,.41-1.78v-.41a4.73,4.73,0,0,0-1.51,3c-.35.19,0,1.12-.68,1v1c0,1.6-.56,2.53-.82,3.83a9,9,0,0,0-.55,1.92,4.34,4.34,0,0,0-.41,1.64c-2.1,1.57-1.15,7-.82,9.85a2.94,2.94,0,0,0,.41,1.78,3,3,0,0,1,0,1.92c-2.83,2.87-5.73-3.09-5.89-6a36.38,36.38,0,0,1,0-8.08,28.93,28.93,0,0,1,.69-3.7,1.75,1.75,0,0,1-2.33-1.36c-.68,2.09-1.9,3.66-2.46,5.88a2,2,0,0,0-.41,1.37,3,3,0,0,0-.41,1.37c0,.83-.44,1.2-.42,2.05-.57.48-.62,1.48-.68,2.47-.39,1.11-.26,2.75-.55,4a1.26,1.26,0,0,1-2.19-1,7.16,7.16,0,0,0-.41-1.64,37.94,37.94,0,0,1,0-6.57,22.63,22.63,0,0,0,.41-2.61,3.21,3.21,0,0,0,.28-1.64,3,3,0,0,0,.41-1.5v-.14a4.51,4.51,0,0,1,0-2.19c-.13-.69.58-1.24.27-1.64-1.24,2-3.16,3.31-3,6.7a55.32,55.32,0,0,0-.41,8.63c-.2,0-.23.23-.41.27-.57-.16-.48-1-.82-1.37A5.91,5.91,0,0,0,99,80.13c-.14-.83.06-2-.41-2.47,0,.75-.46,1.1-.55,1.78-.74,1.47-.39,4.31,0,5.89a3,3,0,0,0,.41,1.78A16,16,0,0,0,99.27,90a1.75,1.75,0,0,0,.41,1.37,5.09,5.09,0,0,1,0,1.51c-.38,1.26-2.23,1.47-3.42.82,0-.43-.31-.61-.28-1.1a4,4,0,0,0-.41-1.37,5.06,5.06,0,0,0-.41-1.64,4,4,0,0,0-.41-1.64c-.15-1.31-.31-2.61-.55-3.83a13.58,13.58,0,0,0,0-2.47c0-1.5.1-3.11-.41-4.1.11-.48-.15-.58-.27-.83h-.27a2.14,2.14,0,0,0-.41,1.51,7.83,7.83,0,0,0-.83,3,15.63,15.63,0,0,0,0,6c.25,1.57,1.36,3.76,0,4.93-1.86.49-2-1.91-2.6-3.15-.24-.9-.33-1.94-.54-2.87V83.82c.33-.35,0-1.39.27-1.78-.43-.06-.44.29-.41.69a7.11,7.11,0,0,0-.41,2.19c0,1.43-1.77,6.64-1.72,8.15C86.6,93.07,86.08,95.13,85.82,96.65Z" transform="translate(-34.66 -12.1)"/><path class="cls-1" d="M137.87,130a6.14,6.14,0,0,1-.13,4c-2.24,5.32-14.83,5.53-19.72,2.47-1.36-.86-3.11-2.49-3.14-4.38,0-2.28,2.21-4.09,3.42-4.79a17.85,17.85,0,0,1,7.25-2.06C130,124.69,136.73,126.87,137.87,130Z" transform="translate(-34.66 -12.1)"/><g id="แว่นnew"><path class="cls-2" d="M143.37,151.84c-.79-.49-2.09,1.14-2.51,1.67l0,0a22.7,22.7,0,0,1-4.54,3.18,22.34,22.34,0,0,1-14.23.55c-5.41-1.85-8.8-4.83-11-9.66a2.09,2.09,0,0,0-1.1-1.14,1.17,1.17,0,0,0-.9,0,1.6,1.6,0,0,0-.86,1c-.41,1.42.71,3.37.94,3.75a18.63,18.63,0,0,0,7.25,6.62,25.13,25.13,0,0,0,11.21,2.89,19.7,19.7,0,0,0,13.61-4.88,10.35,10.35,0,0,0,1.54-1.58l.08-.1c.41-.56,1-1.33.88-1.91A.72.72,0,0,0,143.37,151.84ZM202.9,104.9C201,99.81,198.6,94.66,195,91.49h.13a2.75,2.75,0,0,0,0-2.47c-.42-.85-.93-1.62-1.36-2.46,1.29,1.24,3,1.87,4.1,3.29.28.36.28.77.55,1.23.62,1,1.76,2,2.33,3,.34.59.4,1.82,1.5,1.64,1.17-4-1.61-7.42-2.74-10.27-2.3-3.07-4.47-6.29-7.39-8.76.07-.42-.19-.53-.27-.82-1.49-1.7-4.29-2.83-5.34-4.51,3.31,1.57,6.62,3.14,9.72,4.92a9.14,9.14,0,0,0,4.24,2.88,16.1,16.1,0,0,0-2.19-4.25,1.6,1.6,0,0,0,1.65-.82c.79-.75.29-2.9,0-3.83-.24-1.59-1.58-2.07-2.06-3.42-.9-.73-1.94-1.48-3-2.19s-2.33-1.24-2.87-2.06a9.86,9.86,0,0,0,4.1,1c.53-1.32-1.08-1.8-1.91-2.19a23.39,23.39,0,0,0-4.93-1.64c-3.52-.82-7.23-2.32-10.68-2.74,2.55-.19,5.17-2.06,7.8-1.91,1.22.06,2.1.9,3.43,1,.54,0,.46-.68.54-.82h1c1.72-1.24,1.06-2.91,0-4.52-.87-1.31-2.73-2.57-3.69-3.55,1.5-.59,3.43-.76,4.51-1.78,0-.71,0-1.38-.55-1.51-2.44.56-5.05,1-7.39,1.64-1.7-.94-4.14-1.15-6-1.91,2-.14,4.18-.23,5.89-.41.86-.1,2.06,0,2.19-1-1.14-1.2-3.56-.82-5.34-1-4-.31-8.7.56-12.46.82-.83-.85-2.41-1-3.56-1.51a79.45,79.45,0,0,1,13-3.83c.09-.32.45-.36.54-.68a1.65,1.65,0,0,0,0-1.92c-2.1-2.42-8.7-1.51-12.18-1a1.54,1.54,0,0,0-.41-1.37c-1.48-1.09-4.72-.62-7-.54a42.41,42.41,0,0,1,7.94-4.93c.32-.25.92.19,1.37-.14a.64.64,0,0,1,.41-.41c.47-.15.36-1.6,0-1.78-2.93-3.07-9.5.17-11.91,1.78.68-.91,4.72-2.7,1.78-3.29-2.62-.52-6.88,2.14-8.08,3.29-4.23,1.93-6.76,5.56-10,8.49a35.39,35.39,0,0,1,3.42-7c.65-1.16,1-2.44,1.78-3.56a25.73,25.73,0,0,1,2.19-3.29c.71-.76,1.62-.88,1.78-1.78.1-.59-.47-1.06-.41-1.5.1-.68,1.79-1.49,1.37-2.6a.4.4,0,0,1-.28-.42c-2.58-.18-4.59,1.73-6,3.43-.38.45-.46,1-.82,1.37s-.83.33-1.23.68A18.8,18.8,0,0,0,140.2,22a54.33,54.33,0,0,0-4.79,7c0-.16,0-.39.14-.41.32-.64,0-1.87.13-2.74-.07-1.58.59-2.42.69-3.83a2.93,2.93,0,0,0,.41-1.51c.05-.93.95-1.61.27-2.46a1,1,0,0,0,1.51-.28c.56,0,.56-1.13,0-1.09-.57-2.63-3.22-1.1-5.07-.69-1.53,1.17-2.93,2.46-3.28,4.8a2.91,2.91,0,0,0-.41,1.36,2.23,2.23,0,0,0-.55,1.51c-.38.26-.05,1.23-.55,1.37-.47-.8-1.11-1.66-1.78-2.6s-1-2-1.64-2.74c-.21-.24-.78-.38-1.1-.68-1.34-1.3-2.23-3.2-3.83-4.38-.49-.36-1.2-.59-1.78-1-1.18-.78-3.28-2.07-4.93-1.23-1.62,2,.19,3.2,1.37,4.51a20.76,20.76,0,0,1,1.92,2.19c1.17,1.82,1.95,4.07,2.87,5.48.16.23.52.33.69.55a8.55,8.55,0,0,1,1.23,2.6c-2.6-2.47-4.44-5.69-9.58-5.62-.93.45-2.52,1.06-1.65,2.47a2.11,2.11,0,0,0,1.65.27,22,22,0,0,1,6.71,9.45c-2.67-3-4.85-6.56-8.49-8.63-1.2-1.67-5.9-4.37-9.45-3.69-.94.17-2.92,1.41-2.32,2.32,3.35.76,5.72,3.44,7.66,6-2.66-1.77-5.62-3.14-8.49-4.66-2.27-1.21-4.48-3-7.39-3-.21.2-.12.7-.14,1.1,1.77,1.38,4.65,2.38,6,3.69-5.64-1.21-12.05-.16-15.06,2.88a1.73,1.73,0,0,0-.55,1.37c.23,1.69,1.06,2.77,3.15,2.6.15.26.46.36.69.54,6.12.91,11.91,2.15,15.74,5.34-.91-.22-1.52-.76-2.74-.68-3.36-1.19-9-2.81-13.42-2.6-1,0-2.31.07-2.6,1.09,1,.93,2.7,1.16,4.25,1.51a34.94,34.94,0,0,1,3.83.68c0,2.25,2.65,1.73,3.56,3C88.68,40.71,79.85,38,74.49,41.39v1.78c2,1.29,5.53,1.13,7.67,2.32-4.12-.74-10.35-1-13.42.82-.39.18-.39,1.33,0,1.51s.58.24.69.55c4-.11,6.93.82,10.26,1.37a30.72,30.72,0,0,0-5.06,1.09c-1.57.42-3.18,1.36-4.66,1.51a28.84,28.84,0,0,1-3.55-.14c-1.54-.07-3.5-.67-4.52.41.91.65,2.34.77,3.56,1.1-2.8,1.17-5.39,2.55-7,4.92-.4.2-.4,1.45,0,1.65.46,1.21,1.91,1,3.28.68,2-.41,5.11-1.25,7.12-.82-6.33,3.8-11.94,8.32-16,14.37-.25.32-.46,1.26,0,1.51.92.76,1.2-.23,1.78-.69a20.1,20.1,0,0,1,2.6-1.5c-1.68,1.5-3.3,3.09-4,5.61-.26.81-.77,2.37,0,3,2.22,2.22,3.43-2.1,6.16-1.09a5.22,5.22,0,0,1,3.15-1.1A57.53,57.53,0,0,0,55.19,86,15.77,15.77,0,0,0,53,87.79c-1,1.37-1.22,3.11-2.46,4.38v2.19c1.15,1.35,2.93-.22,3.56-.54-.79,1.43-2.11,3.53-2.33,5.61-.12,1-.14,2.9,1,2.87.3,0,1.44-1.47,1.78-1.91,1.6-2.1,3.79-5.14,5.2-6.3.22-.18.49-.51.55-.14,2.17-2.11,3.33-5.24,6.43-6.43-1.59,1.58-3.94,3.06-4.38,5.34-1.87,1.64-3,4-4.38,6.16.2.32.43-.27.41.27a20.8,20.8,0,0,0-3.15,5.61c-1.72,2.42-3.71,5.93-3.28,9.59,2.31.54,2.86-2.83,4.24-4.11-.47,1.63-.06,2.93-.55,4.38-.38,1.15-1.51,2.08-1.91,3.15-.51,1.32-.76,2.75,0,3.69.66-.29,1-.89,2.05-.82a10.37,10.37,0,0,1,2.19-3c-1.54,3.53-3.63,7.23-4,11.5,2.15,1.13,2.87-2.18,3.56-3.7.83-1.81,1.48-3.23,1.91-4.38a2.8,2.8,0,0,1,.69-.54,25.86,25.86,0,0,1,1.37-2.74c.42-.81.85-2.33,1.91-1.78a4.27,4.27,0,0,1-.68,1.64v1.1C61,123,60.25,129.54,60,135.43c-.13,2.95-.37,5.81,1.64,7,.79-.22.77-1.24,1.1-1.91.24,2,.57,4,2.33,4.51-.44-3.68.26-8.34.82-11.91.18,0,.12.24.27.28a39.1,39.1,0,0,1,1.64-8.22c-.64,2.94-.33,6.16-.54,9.31a32.61,32.61,0,0,0-.41,4.79c.13,1.67.49,3.69.68,5.62.18,1.78-.46,3.73.41,5.33,2.17-.1,1.64-2.92,1.92-4.92.46.4.48,1.25,1.37,1.23,1-1.22-.25-3.92.27-5.48a27.7,27.7,0,0,0,1.64,6.44c.39,1.05,1.9,5,3.56,4.51s.13-3.91,0-5.06a23.9,23.9,0,0,1,.14-6.3c.56,1.58.63,3.66,1.5,4.93.9,2.16,1.24,4.88,3,6.16.58-.55-.13-1.52-.14-2.33a1.28,1.28,0,0,0,1.37-.13c.75.9,1.92,4,3.56,3.56,1-.3.66-1.41.68-2.74a86.07,86.07,0,0,0,10.54,14l2.88,2.33c1.78.55,4.36,2.73,6.16,3.69,2.31,1.24,4.86,1.82,6.84,2.88a23.26,23.26,0,0,0,4.93,1.5c9.07,1.9,19.62-.65,25.87-3.14a36.8,36.8,0,0,0,6.3-3.43c6.74-4,11.14-10.3,15.33-16.83.2.39.2,1,.82,1,1.86-1.06,2.42-3.42,3.7-5.06-.5,1.25-1,3-.14,4.11-.42,1-1.22,2.19-1,3.42,1.63.83,2.59-.89,3.29-1.78,2.53-3.27,3.8-8.08,4.65-12.6a125.15,125.15,0,0,1,.55,13.28c1.1.93,1.71,0,2.47-.82,1.46-1.66,1.51-3.6,1.78-6.84.17-2.07.35-4.17.54-5.48,1.08,1.43.81,4.22,3,4.52-.55-5.42-1.75-10.94-1.64-16.56.56,2.13.77,4.61,1.64,6.43,1.88,4.38,1.76,10.74,2.88,15.88.57.16.67,0,1.23-.14.77-1.94.35-3.93.69-6.3.15-1.08.66-2.08.82-3.14,1-6.88-.36-13.58-1.23-19.44,1.35,2,1.77,4.89,3.55,6.43.73-.32.67-1.43,1-2.19.16.76.78,1.68,1.23,3.15s.63,4.41,2.33,2.87A70.07,70.07,0,0,0,193.18,113c.32,0,.25-.47.68-.41,2.33,1.69,3.32,4.71,4.79,7.25,1.56-.79,1.37-2.92,1.24-4.65-.16-2.08-1.13-4.55-1.37-6.16a27,27,0,0,0-2.74-9c-1.44-2.64-3-5-4.11-7.67a52.75,52.75,0,0,1,8.63,13.42c.72,1.51,1.7,3.34,3.28,4.1A9.64,9.64,0,0,0,202.9,104.9ZM83.53,101.57a1.28,1.28,0,0,0,.82.23c1-.1,1-2.47,1.47-5.15.26-1.52.78-3.58.78-3.58,0-1.51,1.69-6.72,1.72-8.15a7.11,7.11,0,0,0,.41-2.19c.31.1,0,.77.14,1.09a4,4,0,0,0,0,2.33A5.85,5.85,0,0,0,89.41,89c.6,1.24.74,3.64,2.6,3.15,1.36-1.17.25-3.36,0-4.93a35.59,35.59,0,0,1,0-6,12,12,0,0,0,.83-3,12.26,12.26,0,0,0,.41-1.51h.27c.12.25.38.35.27.83.35,1.16.15,2.86.41,4.1a13.58,13.58,0,0,1,0,2.47,14.25,14.25,0,0,0,.55,3.83,4,4,0,0,1,.41,1.64,5.06,5.06,0,0,1,.41,1.64A4,4,0,0,1,96,92.58c0,.49.26.67.28,1.1,1.19.65,3,.44,3.42-.82a5.09,5.09,0,0,0,0-1.51A1.75,1.75,0,0,1,99.27,90a16,16,0,0,1-.82-2.87A12.91,12.91,0,0,0,98,85.33c-.17-1.86-.53-4.14,0-5.89.09-.68.52-1,.55-1.78.47.48.27,1.64.41,2.47A5.43,5.43,0,0,0,99.41,82c.34.39.25,1.21.82,1.37.18,0,.21-.24.41-.27.23-2.78.18-5.85.41-8.63-.15-3.39,1.77-4.7,3-6.7.31.4-.4,1-.27,1.64-.31.41-.49,1.83,0,2.19v.14a4.4,4.4,0,0,0-.41,1.5,3.21,3.21,0,0,1-.28,1.64,6.57,6.57,0,0,0-.41,2.61,17.7,17.7,0,0,0,0,6.57,3.06,3.06,0,0,0,.41,1.64,1.26,1.26,0,0,0,2.19,1c.5-1,.37-2.65.55-4a13.71,13.71,0,0,0,.68-2.47c0-.85.43-1.22.42-2.05a3.21,3.21,0,0,0,.41-1.37,7.58,7.58,0,0,0,.41-1.37c.56-2.22,1.78-3.79,2.46-5.88A1.75,1.75,0,0,0,112.55,71a28.93,28.93,0,0,0-.69,3.7,20.92,20.92,0,0,0,0,8.08c.16,2.93,3.06,8.89,5.89,6,.47-.18.37-1.72,0-1.92a15.47,15.47,0,0,0-.41-1.78c-.33-2.81-1.28-8.28.82-9.85a4.21,4.21,0,0,0,.41-1.64,4.38,4.38,0,0,0,.55-1.92c.26-1.3.87-2.23.82-3.83h.27a12.53,12.53,0,0,0,.41-1.92,4.73,4.73,0,0,1,1.51-3v.41a4.91,4.91,0,0,0-.41,1.78,6.19,6.19,0,0,0-.41,2.33,14,14,0,0,0,0,4.38,6.28,6.28,0,0,0,.41,2.46,3,3,0,0,0,.41,1.51c.08.55.06,1.21.41,1.5.78,1.7,1.91,5.47,4.11,4a2.92,2.92,0,0,0,.41-2.19c.4-.32.86-.6,1-1.23a2,2,0,0,0,0-2c-.17-.66-.73-.92-.82-1.65-.81-3.08-.19-7,0-10.26V63.7c.15-.58.69.62,1.36.41v1a13.51,13.51,0,0,0,.55,3.15c.11.72.07,1.57.55,1.91a3.72,3.72,0,0,0,.41,1.51c-.1.78.65.72,1.1,1v.68c.12,2.76.29,5.46.54,8.08a17.83,17.83,0,0,0,.41,4.79,1.18,1.18,0,0,0,.69,1.09c1-.33,1.41-1.32,1.91-2.19a5.19,5.19,0,0,0,.55-2.19,7,7,0,0,0,.41-2.46c.35-3.8.72-8.6.14-12.46a1.83,1.83,0,0,0,1.51-1.78,4.07,4.07,0,0,0,.41-1.78c.32-.31.11-1.16.41-1.5a2.93,2.93,0,0,1,.82.27,5.63,5.63,0,0,0,.27,2.06c.12,2,.33,3.87.55,5.74v5.89a12.33,12.33,0,0,0,0,4.11,4.44,4.44,0,0,0,.41,2.46c.63,1.61,2.18.73,2.33-.68a14,14,0,0,0,.55-1.37c.16-.48.41-.87.54-1.37a7.84,7.84,0,0,0,.41-2.6,3.65,3.65,0,0,0,.28-1.78,16.64,16.64,0,0,0,.41-2.88c1.1.77.76,3,2.87,2.74V76a3.36,3.36,0,0,0,.69,2.46,4.74,4.74,0,0,0,.41,1.92,8.49,8.49,0,0,0,.41,2.6c.66,2.39-.52,7.37,2.05,7.26,1.34-.06,1.29-1.57,2-2.47a5.14,5.14,0,0,0,.55-2.6,19.32,19.32,0,0,0,0-6.57c.2-.82-.52-2.93.14-2.46,1.59,4.16,3.48,8,4.79,12.45a2.42,2.42,0,0,1,.41,1.37,6.2,6.2,0,0,1,.41,1.78c.71,1.74-.57,5.14,1.37,5.48,1.35.24,2.23-1,2.6-2.47a4.35,4.35,0,0,1,.41-1.36,27.63,27.63,0,0,0,0-5.75,5.67,5.67,0,0,0-.41-1.92,3.72,3.72,0,0,0-.41-1.51,4,4,0,0,0-.41-1.37c0-.67-.4-1-.41-1.64-.15-.44-.25-.94-.68-1.09A16,16,0,0,1,160.19,77c.41-.29.76.47,1.09.82a21.09,21.09,0,0,1,3.15,4v1.09a4.07,4.07,0,0,0,.41,1.78c.07.85.34,1.49.41,2.33a6.48,6.48,0,0,0,.41,2,10.24,10.24,0,0,1,.55,3.15,22.13,22.13,0,0,1,.55,2.74c.45,2-.16,3.63.41,5.48.69-.4.9-1.29,1.5-1.78.2-.2.07-.71.47-.69,0,1,.1,2.6.22,4.59,0,.74-.06,1.49-.09,2.23l-3.89,1.17c-.24-2.54-.61-4.42-1.13-4.66-1.6-.71-33.75-.54-34.72.64-.86,1-.5,2.93-.78,4.27h-5c-.15-1.93.11-4.38-1.22-5.14-11.27-.32-20.41-1.6-31.91-1.69,0,0-3.13.42-3,3.13,0,.31,0,1.1.06,2.2l-4.24-1.41C83.45,102.62,83.49,102.05,83.53,101.57ZM164,148.74a67.47,67.47,0,0,1-4.23,6.4,42.23,42.23,0,0,1-12.46,11.78,39.69,39.69,0,0,1-23.27,5.88c-7.4-.32-13.66-3.14-19-6.43a43.72,43.72,0,0,1-12.87-12.6,64.57,64.57,0,0,1-4-6.56c-7.19-15-7.36-30.19-6.81-29,.4.87.79,1.49,1,1.49.57,0,.57-2.85.57-2.85a3.27,3.27,0,0,0,.19-2.66,7.33,7.33,0,0,1-.16-2.1l4.88.49c.11,4.06.29,8,.6,8.84.66,1.88,16.42,10,17.24,10,2.15,0,5-1.82,6.74-2.43-5.11,15.45,31.57,17.39,28.36.82a11.22,11.22,0,0,0-2.23-3.46c.87.66,6.34,5.37,7.52,5.4s15.69-8.5,19.65-11.62c.07-1.53.1-3.65.08-5.93l4.21-.28c0,1,0,1.84,0,2.58.19,1.33.38.38.77.19S171.76,133.17,164,148.74Z" transform="translate(-34.66 -12.1)"/><path class="cls-1" d="M137.75,129.91c2,5.41-4.22,8-8.73,8.32-6.18.48-14.09-1.36-14.18-6.27,0-2.29,2.2-4.06,3.41-4.77a17.67,17.67,0,0,1,7.36-2C130,124.71,136.67,127,137.75,129.91Z" transform="translate(-34.66 -12.1)"/><path class="cls-1" d="M123.52,113.07H129c-.5,4.71.33,7.39,3.22,8.59-3.28-1-8.86-.93-12.16.44,1.07-1.18,2.74-1.76,3.51-3.25Z" transform="translate(-34.66 -12.1)"/></g><path class="cls-3" d="M161.25,112.64c-.39,1.55.56,3.26,0,4.82-.29.85-2.68,1.93-3.57,2.5-3.54,2.26-7.72,5-10.86,7.08a4.36,4.36,0,0,1-1.81-1.5c2.79-2.13,4.9-4.18,7.89-6.19C156.23,117.14,158.83,114.58,161.25,112.64Z" transform="translate(-34.66 -12.1)"/><path class="cls-3" d="M160.85,105.12c-.21.47.29,2,0,2.91-.41,1.33-3.13,2-4.48,3.1-4.46,3.56-6.73,5.59-11.24,9.13-.49.39-3.09,3.08-3.21,3.09-1.05.07-2.18-2.21-3.13-2.2,2.59-1.81,6.86-6.23,11.67-10.1,3.15-2.54,5.25-3.73,8-5.92Z" transform="translate(-34.66 -12.1)"/><path class="cls-3" d="M152.79,104.84c.25.44-.51.68-.68.83-4.5,3.88-9,7.5-13.88,11.51a18.57,18.57,0,0,1-2.06,1.8c-.67,0-2.52-1.52-2.22-2.88.19-.87,2.21-2.3,3.16-2.91,4.27-2.72,6.74-5.89,9.75-8.32Z" transform="translate(-34.66 -12.1)"/><path class="cls-3" d="M133.89,105l7.31,0c-1.32,1.15-3.09,2.4-4.49,3.59a35.84,35.84,0,0,1-2.79,2.51Z" transform="translate(-34.66 -12.1)"/><path class="cls-3" d="M118.78,104.68c0,1.06,0,2.11,0,3.17-1.74,1.34-3.48,2.45-5.19,3.82-4.56,3.67-8.56,7.83-13.63,11.3-1.26-.48-2.08-1.41-3.32-1.91,3.43-2.71,7.23-6.49,10.65-9.31,3.16-2.6,5.86-4.42,9-7Z" transform="translate(-34.66 -12.1)"/><path class="cls-3" d="M118.69,112.39c.33,1.29.07,3.17.17,4.69-4.23,3.27-8.49,6.51-12.64,9.84-1.09-.52-1.92-1.3-3-1.77,1.47-1.3,2.91-2.65,4.5-3.81C110.86,119,114.38,116,118.69,112.39Z" transform="translate(-34.66 -12.1)"/><path class="cls-3" d="M104.43,104.77l6.21,0c-3.28,3.38-7.89,6.3-11.49,9.8-1.42,1.38-3.89,3-5.82,4.48a8.76,8.76,0,0,0-1.8-1.22c-.61-2.49,1.63-3.67,3.15-4.7C98.63,110.39,101.32,107.26,104.43,104.77Z" transform="translate(-34.66 -12.1)"/><path class="cls-3" d="M91.46,104.84l7.31,0a90.9,90.9,0,0,1-7.28,6.1Z" transform="translate(-34.66 -12.1)"/><path class="cls-2" d="M77.65,217.5l-3.42,1.63c-5.09.56-5.67-4.26-7.45-10.29-2.19-7.46-4.9-10.47-4.9-10.47,3.59.27,7.64-.72,14.44-2.07s3.55,3,3.55,3c12.33-1.68,17.95-8.59,16.16-14.76s-14.54-4.7-19.44-3.32-19.81,5.81-26,6.54A31.72,31.72,0,0,1,40,187.39l-4.33,5.43c7.34,4.15,10.82,10.36,13.72,14.86s6.6,17.11,8.12,20.69c1.62,3.85,7,8.39,15.38,4.09,7.41-3.82,4.72-15,4.72-15" transform="translate(-34.66 -12.1)"/><path class="cls-2" d="M66.48,234.49h0a9.91,9.91,0,0,1-9.19-6c-.49-1.15-1.21-3.23-2-5.63-1.74-5-4.12-12-6.07-15-.26-.39-.51-.8-.78-1.21-2.76-4.37-6.21-9.8-12.84-13.55l-.29-.17,4.65-5.83.18,0a28,28,0,0,0,6.32.64,36,36,0,0,0,4.16-.25c5.66-.67,18.94-4.52,24.62-6.16l1.3-.38a37.93,37.93,0,0,1,9.37-1.23c7.48,0,9.8,2.58,10.43,4.75a8.75,8.75,0,0,1-1.22,7.34c-2.59,4-8.12,6.82-15.18,7.78l-.67.09.4-.54c.29-.4,1-1.56.63-2.22s-1.06-.61-1.7-.61a11.75,11.75,0,0,0-2.19.26l-2.84.57c-4.77,1-8.11,1.64-11,1.54a32.44,32.44,0,0,1,4.56,10.06c.22.77.43,1.51.63,2.23,1.27,4.59,2.19,7.9,5.77,7.9l.69,0,3.69-1.76.09.34a21.54,21.54,0,0,1,.42,6.14c-.34,4.37-2.17,7.54-5.29,9.15A14.49,14.49,0,0,1,66.48,234.49ZM36.14,192.74c6.57,3.81,10,9.22,12.76,13.57.26.42.52.82.77,1.21,2,3.1,4.38,10.06,6.13,15.14.82,2.4,1.53,4.47,2,5.6a9.35,9.35,0,0,0,8.67,5.66h0a13.87,13.87,0,0,0,6.31-1.71c3-1.54,4.66-4.45,5-8.67a21.54,21.54,0,0,0-.34-5.63l-3.13,1.5h0a7.63,7.63,0,0,1-.8.05c-4,0-5-3.68-6.32-8.33-.2-.71-.41-1.45-.63-2.21-2.15-7.29-4.82-10.33-4.84-10.36l-.48-.53.71.05c.39,0,.8,0,1.22,0,2.72,0,5.9-.65,10.3-1.54l2.85-.57c2.53-.52,4-.3,4.51.65a2.6,2.6,0,0,1-.34,2.27c6.6-1,11.74-3.7,14.17-7.43a8.16,8.16,0,0,0,1.15-6.87c-.58-2-2.76-4.33-9.88-4.33a37.38,37.38,0,0,0-9.21,1.2l-1.3.38c-5.69,1.65-19,5.5-24.71,6.18a37.23,37.23,0,0,1-4.23.25,29.45,29.45,0,0,1-6.28-.61Z" transform="translate(-34.66 -12.1)"/><path class="cls-2" d="M116.58,220.53c-1.88-1.53.12-7.22.65-12.5s-4.93-8.78-4.93-8.78c9.75-.89,5.3-12.63,5.3-12.63l-3.19,1.23L110,183.54c-3.19.36-7.49,4.11-7.49,4.11l-2.09-2c-8.21,9.6.62,13.37.62,13.37-4.51,3.52-26.09,1-26.09,1l-3.86,3.54a23.24,23.24,0,0,1,9.09,12.44c2.08,6.46-2.19,16.49-2.19,16.49,6.76,1.6,15.49-1,17.51-7.32s-2.08-14.66-2.08-14.66,5.31-.54,5.91,1.17-1.63,8.45-1.89,11-.6,10.37,10.83,10.78S120.81,221,120.81,221a4.44,4.44,0,0,1-4.23-.49" transform="translate(-34.66 -12.1)"/><path class="cls-2" d="M108.84,233.8h-.55c-4.2-.15-7.27-1.32-9.13-3.46-1.64-1.88-2.3-4.45-2-7.64a37.17,37.17,0,0,1,.86-4.13c.62-2.55,1.39-5.74,1-6.73-.24-.67-1.64-1.06-3.85-1.06-.55,0-1,0-1.36,0a31.72,31.72,0,0,1,1.64,4.63c.71,2.66,1.34,6.53.28,9.87a10.55,10.55,0,0,1-5.29,6A18.59,18.59,0,0,1,78,232.83l-.33-.08.13-.31c0-.1,4.21-10,2.19-16.3a23.27,23.27,0,0,0-9-12.28l-.33-.2,4.25-3.88H75c.07,0,7.48.86,14.43.86,5.51,0,9.3-.54,11-1.56a7.34,7.34,0,0,1-3.67-4.53c-.62-2.65.53-5.69,3.41-9.06l.19-.23,2.12,2c.89-.75,4.56-3.68,7.45-4h.14l4.34,4.28,3.29-1.27.1.27c.1.26,2.33,6.26-.06,10.07a6.45,6.45,0,0,1-4.75,2.85c1.44,1.11,4.88,4.24,4.45,8.62-.16,1.65-.46,3.31-.75,4.92-.6,3.28-1.16,6.38,0,7.32a3.49,3.49,0,0,0,2.26.76,4.55,4.55,0,0,0,1.68-.31l.44-.19,0,.48a18.68,18.68,0,0,1-1.92,6.36A11.16,11.16,0,0,1,108.84,233.8Zm-13.6-23.6c2.58,0,4.05.49,4.39,1.44.41,1.15-.32,4.15-1,7.06a36.94,36.94,0,0,0-.85,4.05c-.32,3,.3,5.45,1.83,7.21,1.75,2,4.69,3.11,8.72,3.26h.53a10.45,10.45,0,0,0,9.83-6.1,18.28,18.28,0,0,0,1.8-5.7,5.26,5.26,0,0,1-1.45.21,4.09,4.09,0,0,1-2.62-.89c-1.43-1.16-.86-4.27-.21-7.87.29-1.6.59-3.25.75-4.88.49-5-4.75-8.47-4.8-8.51l-.7-.45.83-.08a6.21,6.21,0,0,0,5-2.67c2-3.14.51-8.08.11-9.29l-3.09,1.19-4.41-4.35c-3.06.44-7.16,4-7.21,4l-.19.17-2-1.93c-2.61,3.13-3.65,5.92-3.09,8.32a7,7,0,0,0,3.79,4.37l.45.19-.38.3c-1.66,1.29-5.62,1.95-11.8,1.95-6.47,0-13.35-.74-14.37-.85l-3.5,3.2A24.16,24.16,0,0,1,80.48,216c.88,2.73.78,6.37-.31,10.82a43.58,43.58,0,0,1-1.76,5.55,17,17,0,0,0,3.68.38,17.51,17.51,0,0,0,8.15-1.94,10,10,0,0,0,5-5.64c2-6.14-2-14.36-2.06-14.45l-.18-.37.41,0S94.23,210.2,95.24,210.2Z" transform="translate(-34.66 -12.1)"/><path class="cls-2" d="M214.68,220.76a7.73,7.73,0,0,1-3.82.14c-2.73-1.53.14-7.83.21-11.85s-5.15-6.33-5-6.45c4.51-3.1,6.06-6.46,6.11-9.43s-2.43-6.4-6-6.46a7.2,7.2,0,0,0-5.33,1.82c-1.86-2.16-5.25-2.22-5.25-2.22s-7.85.5-7.74,6.22a12.08,12.08,0,0,0,4.71,9c-9.77,1.74-26.25-.46-26.25-.46l0,.35a21.06,21.06,0,0,0-.12-3.52c-.75-5.53-5.46-14.95-15.07-10.87,0,0,5.46,3.28,1.49,11.69,0,0-10,14.23-9.71,22.06,0,0-3.48-6.83,3.09-19.43,0,0,7.46-14.49-5-16.61,0,0-2.73-.69-6.6,2.2a8.13,8.13,0,0,1,1.58,6.18c-.69,3.38-.74,6.55-7.65,13.85a23.12,23.12,0,0,0-6.22,16.2c0,2.75-.17,10,10.19,11a13.83,13.83,0,0,0,11.31-4.25s1.16,6,10.06,6.12,14.14-8.87,14.81-11.62c0,0-5.26-1.35-4.53-6.86.41-3.1,1.31-7.2,1.89-11.18a12.44,12.44,0,0,1,5.74,11.74c.68,9.13-6.2,14.52-6.2,14.52,2.71,2.79,8.23,2.26,8.23,2.26,17.38-1.18,15.17-19.87,15.17-19.87,5.3-.75,4,2.61,3.74,4.31s-2.25,7.8-2.25,7.8c-1.66,9.93,8.71,10.11,8.71,10.11,14,.25,16-16.51,15.77-16.46" transform="translate(-34.66 -12.1)"/><path class="cls-2" d="M199.22,237.51h-.31c-.2,0-4.86-.12-7.48-3.27-1.5-1.8-2-4.22-1.51-7.18v0c0-.07,2-6.1,2.24-7.75q0-.3.12-.66c.18-.93.4-2.09-.16-2.77s-1.53-.78-3.11-.59c.12,1.56.47,9.24-4,14.57-2.66,3.21-6.53,5-11.51,5.34,0,0-.43,0-1.1,0-1.88,0-5.34-.31-7.36-2.39l-.22-.23.25-.19c.07-.06,6.75-5.42,6.09-14.28V218A12.23,12.23,0,0,0,166,206.85c-.27,1.85-.61,3.69-.94,5.48s-.67,3.7-.87,5.23a5.85,5.85,0,0,0,4.32,6.56l.27.07-.07.27c-.64,2.61-5.77,11.83-14.86,11.83h-.23c-2.6,0-6.19-.64-8.57-3.21a7.62,7.62,0,0,1-1.63-2.64,14.12,14.12,0,0,1-9.94,4.06,7.5,7.5,0,0,1-1.27-.08c-10.61-1-10.48-8.47-10.43-11.27a23.33,23.33,0,0,1,6.29-16.4c6.23-6.58,6.83-9.74,7.41-12.8,0-.3.11-.6.17-.91a7.93,7.93,0,0,0-1.52-5.94l-.19-.23.24-.18a10.22,10.22,0,0,1,6-2.33,4.43,4.43,0,0,1,.86.08c3.24.55,5.45,2,6.58,4.25,2.54,5.07-1.21,12.46-1.37,12.77-4.72,9-4.2,15.1-3.57,17.71.85-7.9,9.14-19.84,9.68-20.61,3.8-8.07-1.33-11.27-1.39-11.3l-.48-.29.52-.22a11.68,11.68,0,0,1,4.58-1,9.49,9.49,0,0,1,7.78,4.33,17.93,17.93,0,0,1,3.1,7.78,19.09,19.09,0,0,1,.15,2.95,146.27,146.27,0,0,0,16.59,1.1,57.89,57.89,0,0,0,8.71-.56,12.1,12.1,0,0,1-4.31-8.8c-.12-5.92,7.92-6.5,8-6.51h0a8.36,8.36,0,0,1,5.26,2.1,7.76,7.76,0,0,1,5.32-1.7,6.22,6.22,0,0,1,4.6,2.24,7,7,0,0,1,1.72,4.51c-.05,2.44-1.11,6-5.91,9.44l.08,0c1.3.81,4.76,3,4.69,6.39a26.23,26.23,0,0,1-.7,4.61c-.63,3-1.27,6,.32,7a5.67,5.67,0,0,0,1.38.15,9.13,9.13,0,0,0,2.26-.3h.24l.08.15c.2.35-.5,5-2.9,9.18C209.12,234.84,204.69,237.51,199.22,237.51Zm-8.74-10.34c-.46,2.79,0,5,1.38,6.7,2.45,2.95,7,3.06,7.06,3.06h.3a13.14,13.14,0,0,0,10.08-4.35,22.38,22.38,0,0,0,5.09-11.47,9.74,9.74,0,0,1-2,.23,5.79,5.79,0,0,1-1.58-.18l-.05,0c-2-1.12-1.3-4.42-.63-7.6a25.68,25.68,0,0,0,.69-4.51c.06-3.09-3.2-5.13-4.42-5.89-.45-.28-.55-.35-.56-.53v-.16l.13-.09c3.86-2.65,5.92-5.84,6-9.2.05-2.87-2.4-6.12-5.75-6.18H206a7,7,0,0,0-4.94,1.74l-.22.23-.21-.24c-1.7-2-4.81-2.12-5-2.12s-7.56.64-7.46,5.92a11.79,11.79,0,0,0,4.59,8.75l.56.4-.68.12a55.22,55.22,0,0,1-9.44.67,149.67,149.67,0,0,1-16.61-1.09v0l-.58,0a18.78,18.78,0,0,0-.12-3.46,17.25,17.25,0,0,0-3-7.53,9.1,9.1,0,0,0-7.32-4.09,10.86,10.86,0,0,0-3.89.78c1.24,1,4.52,4.64,1.17,11.75l0,0c-.1.14-9.94,14.23-9.66,21.88l0,1.3-.59-1.16c-.14-.28-3.47-7.11,3.1-19.69,0-.08,3.77-7.45,1.37-12.26-1.05-2.09-3.12-3.42-6.18-3.94h0a3.59,3.59,0,0,0-.73-.06,9.42,9.42,0,0,0-5.39,2,8.25,8.25,0,0,1,1.45,6.18c-.06.3-.11.6-.17.9-.59,3.13-1.2,6.38-7.55,13.09a22.77,22.77,0,0,0-6.14,16,11.84,11.84,0,0,0,1.16,6c1.49,2.68,4.44,4.26,8.77,4.7a10.92,10.92,0,0,0,1.2.06,13.57,13.57,0,0,0,9.88-4.23l.38-.4.11.54c0,.23,1.23,5.74,9.78,5.89A14.16,14.16,0,0,0,164,231a18.34,18.34,0,0,0,4.11-6.44,6.39,6.39,0,0,1-4.46-7.09c.2-1.55.53-3.36.88-5.26s.72-3.93,1-5.92l.07-.46.38.26a12.87,12.87,0,0,1,5.87,12c.59,8.16-4.82,13.43-6.07,14.52,1.9,1.74,5,2,6.73,2,.64,0,1,0,1,0,4.83-.32,8.56-2.05,11.11-5.12,4.77-5.74,3.81-14.34,3.8-14.42l0-.28.28,0c2-.28,3.25,0,3.9.76s.48,2.19.28,3.24c0,.23-.08.44-.11.63C192.5,221,190.63,226.72,190.48,227.17Z" transform="translate(-34.66 -12.1)"/><path class="cls-2" d="M78,217.42l-.12-.49-3.87,1.85c-4,.4-4.88-2.88-6.24-7.84l-.64-2.22a33.32,33.32,0,0,0-4.44-9.91c2.9.06,6.18-.61,10.92-1.57l2.75-.55c2.77-.56,3.54-.09,3.75.24.37.58-.33,1.78-.59,2.15l-.57.76,1-.13c7.08-1,12.64-3.83,15.25-7.83a8.81,8.81,0,0,0,1.23-7.43c-1.86-6.4-14.48-5.14-19.94-3.59L75,181.3c-6.11,1.76-18.8,5.42-24.38,6.08A30.91,30.91,0,0,1,40.14,187l-.25-.05-4.79,6,.4.22c6.63,3.77,10.07,9.19,12.83,13.54l.76,1.2c1.95,3,4.34,10,6.08,15l2,5.58A10.22,10.22,0,0,0,63,234c3,1.09,6.52.67,10.13-1.19,7.61-3.93,4.95-15.3,4.92-15.4M72.76,232.1c-3.42,1.77-6.7,2.17-9.49,1.15a9.29,9.29,0,0,1-5.36-5l-2-5.52c-1.76-5.12-4.16-12.11-6.15-15.23L49,206.29c-2.75-4.36-6.19-9.71-12.73-13.56.46-.56,3.65-4.55,3.91-4.9a31.68,31.68,0,0,0,10.49.35c5.63-.68,18.37-4.35,24.49-6.1l1.53-.44c4.46-1.28,17.21-2.91,19,3A7.54,7.54,0,0,1,96,187a8.5,8.5,0,0,1-1.42,4.47c-2.38,3.64-7.42,6.25-13.85,7.3a3.24,3.24,0,0,0,.38-1.35,1.71,1.71,0,0,0-.24-.9c-.57-.9-2.07-1.1-4.57-.6l-2.76.56c-5.16,1.06-8.55,1.75-11.57,1.52l-1-.08.66.75s2.67,3.05,4.82,10.3l.62,2.22c1.37,5,2.45,8.89,7.24,8.37l3.08-1.44a22.24,22.24,0,0,1,.36,4.29c-.06,3.38-1,7.68-4.95,9.72" transform="translate(-34.66 -12.1)"/><path class="cls-2" d="M66.45,234.89h0a10.33,10.33,0,0,1-3.56-.61,10.53,10.53,0,0,1-6-5.64l-2-5.59c-1.64-4.77-4.1-12-6-15l-.76-1.19c-2.75-4.34-6.16-9.72-12.73-13.45l-.7-.38,5.11-6.41.47.1a27.09,27.09,0,0,0,6.21.62,35,35,0,0,0,4.1-.24c5.54-.66,18.19-4.31,24.28-6.06l1.57-.45a36.79,36.79,0,0,1,9.45-1.27c7.75,0,10.17,2.75,10.84,5.05A9.08,9.08,0,0,1,95.43,192c-2.66,4.08-8.29,7-15.46,8l-1.62.21,1-1.3c.38-.52.8-1.48.58-1.83-.06-.09-.31-.37-1.34-.37a10.92,10.92,0,0,0-2.11.26l-2.81.56a59.21,59.21,0,0,1-10.38,1.57,34.83,34.83,0,0,1,4.17,9.54l.64,2.23c1.27,4.61,2.11,7.65,5.33,7.65l.56,0,4.14-2,.21.83h0c.15.61,2.57,11.78-5.07,15.73A15,15,0,0,1,66.45,234.89Zm-30.91-42,.1.05c6.69,3.81,10.15,9.26,12.93,13.65l.76,1.2c2,3.09,4.37,10,6.11,15.1l2,5.58a9.77,9.77,0,0,0,9,5.89A14.39,14.39,0,0,0,73,232.57c7.42-3.84,4.8-15,4.77-15.08l0-.15-3.6,1.72h0c-.23,0-.46,0-.67,0-3.66,0-4.59-3.39-5.88-8.08l-.64-2.22a32.93,32.93,0,0,0-4.4-9.83l-.33-.46h.57c2.87.06,6.16-.6,10.8-1.55l2.82-.56c2.22-.46,3.6-.33,4,.36.55.87-.59,2.46-.6,2.48l-.16.21.27,0c7-1,12.48-3.77,15-7.71a8.49,8.49,0,0,0,1.19-7.19c-.61-2.12-2.9-4.63-10.29-4.63a36.6,36.6,0,0,0-9.29,1.24l-1.58.45c-6.09,1.76-18.78,5.41-24.36,6.08a36.32,36.32,0,0,1-4.17.25,27.88,27.88,0,0,1-6.37-.65H40Zm30.93,41.24a9.58,9.58,0,0,1-8.83-5.76l-2-5.64c-1.74-5.06-4.13-12-6.1-15.06l-.75-1.19c-2.57-4.05-6.07-9.6-12.63-13.46l-.29-.17.21-.26c.52-.64,3.65-4.56,3.9-4.9l.12-.14.18,0a27.71,27.71,0,0,0,6.12.6,36.09,36.09,0,0,0,4.27-.25c5.42-.65,17.39-4.08,23.82-5.92l2.15-.62A37.63,37.63,0,0,1,86,180.14c4,0,8.89.77,10,4.45a8,8,0,0,1,.32,2.39,8.77,8.77,0,0,1-1.47,4.61c-2.38,3.65-7.5,6.36-14,7.43l-.55.09.24-.5a3,3,0,0,0,.35-1.23,1.38,1.38,0,0,0-.19-.74c-.5-.77-1.94-.93-4.27-.47l-2.76.56c-4.46.91-7.68,1.57-10.44,1.57-.42,0-.82,0-1.21,0l-.29,0,.19.21c.42.42,2.91,3.78,4.88,10.42l.62,2.22c1.27,4.59,2.27,8.21,6.14,8.21.24,0,.49,0,.75,0l3-1.42.34-.16.06.36a22.39,22.39,0,0,1,.37,4.35c-.06,3.38-1,7.86-5.11,10A14,14,0,0,1,66.47,234.09ZM36.71,192.65c6.5,3.92,10,9.44,12.54,13.48l.76,1.19c2,3.12,4.4,10.09,6.15,15.18l0,.1,2,5.52A8.93,8.93,0,0,0,63.36,233a9.19,9.19,0,0,0,3.11.53,13.51,13.51,0,0,0,6.15-1.66c3.87-2,4.75-6.26,4.81-9.48a21.68,21.68,0,0,0-.3-3.87l-2.74,1.29,0,0h0a8.43,8.43,0,0,1-.86.05c-4.31,0-5.41-4-6.69-8.62L66.13,209c-2-6.89-4.54-9.94-4.73-10.17l0,0-1.14-1.28,1.7.13c.37,0,.77,0,1.17,0,2.71,0,5.9-.65,10.32-1.56l2.76-.56a12.44,12.44,0,0,1,2.35-.27,2.76,2.76,0,0,1,2.53,1,2,2,0,0,1,.27,1,3,3,0,0,1-.19,1c6.14-1.1,10.91-3.67,13.14-7.09A8.24,8.24,0,0,0,95.67,187a7.49,7.49,0,0,0-.3-2.22c-.54-1.84-2.61-4-9.41-4a36.82,36.82,0,0,0-9.18,1.21l-2.15.61c-6.45,1.85-18.45,5.28-23.91,5.94a37.43,37.43,0,0,1-4.34.26,29.1,29.1,0,0,1-6.08-.58C39.73,188.88,37.47,191.7,36.71,192.65Z" transform="translate(-34.66 -12.1)"/><path class="cls-2" d="M116.83,220.2a2.83,2.83,0,0,1-.64-2.27,36.32,36.32,0,0,1,.67-4.92l.76-4.95c0-.2,0-.41,0-.61.06-4-2.93-6.83-4.38-8a6.49,6.49,0,0,0,4.63-2.83A8.42,8.42,0,0,0,119,192.4a17.77,17.77,0,0,0-1-5.91l-.15-.37-3.33,1.26-4.33-4.27-.19,0c-2.85.32-6.41,3.12-7.44,4-.38-.37-2.12-2-2.12-2l-.27.31c-2.35,2.75-3.56,5.29-3.6,7.58a6.46,6.46,0,0,0,.17,1.59,7.31,7.31,0,0,0,3.46,4.44c-5.26,2.87-24.94.67-25.15.65l-.18,0-4.41,4,.47.28a23.07,23.07,0,0,1,8.92,12.22c2,6.25-2.14,16.12-2.18,16.22l-.19.43.47.11c7,1.66,15.87-1,18-7.59a13,13,0,0,0,.58-3.77A27.13,27.13,0,0,0,94.06,211c2-.14,4.61,0,4.93.92s-.43,4.11-1,6.62l-.88,4.19c-.33,3.23.35,5.84,2,7.74,1.88,2.16,5,3.33,9.2,3.49,11.69.42,12.92-12.73,12.93-12.86l.06-.67-.61.27a4,4,0,0,1-3.83-.45m-8.51,12.9c-4-.14-6.9-1.22-8.63-3.21-1.52-1.73-2.12-4.12-1.81-7.13l.84-4.07c.71-2.9,1.43-5.91,1-7.08-.68-1.91-5.39-1.53-6.32-1.44l-.58.07.25.51c0,.07,4,8.26,2,14.37-1.89,5.93-10.13,8.42-16.55,7.1a36.66,36.66,0,0,0,2.6-11.68,14.24,14.24,0,0,0-.59-4.61,23.92,23.92,0,0,0-8.84-12.37l3.37-3.06c1.93.21,21.73,2.35,26.19-1.12l.53-.43-.63-.26a6.94,6.94,0,0,1-3.72-4.29,5.72,5.72,0,0,1-.15-1.38c0-2,1.11-4.26,3.15-6.74l2,1.9.27-.24s4.09-3.52,7.1-4l4.41,4.35s2.45-.94,3-1.18a17.09,17.09,0,0,1,.86,5.28,7.3,7.3,0,0,1-1,3.81,6.13,6.13,0,0,1-5,2.63l-1.16.1,1,.64s4.86,3.17,4.78,7.85l0,.54-.76,4.88a35.47,35.47,0,0,0-.69,5,3.51,3.51,0,0,0,.94,2.91,4.6,4.6,0,0,0,4,.76c-.36,2.45-2.33,11.86-12,11.51" transform="translate(-34.66 -12.1)"/><path class="cls-2" d="M108.83,234.21h-.56c-4.31-.17-7.48-1.38-9.4-3.59-1.71-2-2.41-4.64-2.08-8v0l.93-4.4c.54-2.28,1.28-5.4,1-6.26-.14-.38-1.26-.77-3.43-.77l-.8,0a27.21,27.21,0,0,1,2.28,10.37,13.35,13.35,0,0,1-.59,3.86,10.91,10.91,0,0,1-5.43,6.19,18.3,18.3,0,0,1-8.62,2.08,18.69,18.69,0,0,1-4.27-.49l-.8-.19.33-.75a42.33,42.33,0,0,0,1.85-5.78c1-4.2,1.12-7.73.32-10.23a22.59,22.59,0,0,0-8.79-12.06l-.81-.48,4.81-4.39.3.07h.08c1.8.19,8.16.81,14.16.81,5,0,8.4-.41,10.29-1.23a7.28,7.28,0,0,1-3.16-4.34,6.46,6.46,0,0,1-.17-1.66c0-2.34,1.27-4.95,3.66-7.75l.46-.55.22.21,2,1.81c1.47-1.18,4.73-3.57,7.39-3.87l.32,0,.1.1,4.2,4.13,3.16-1.19.27-.1.26.7a18.14,18.14,0,0,1,1,6,8.5,8.5,0,0,1-1.16,4.4,6.49,6.49,0,0,1-4.23,2.83c1.52,1.31,4.09,4.07,4,7.82v.06a5.59,5.59,0,0,1,0,.57l-.77,5-.06.35a31.52,31.52,0,0,0-.6,4.53c0,1.07.16,1.76.52,2a3.19,3.19,0,0,0,2,.7,4.08,4.08,0,0,0,1.51-.29l1-.46-.1,1.15a19.67,19.67,0,0,1-2,6.6A11.5,11.5,0,0,1,108.83,234.21ZM97.36,222.72c-.31,3.15.34,5.67,1.94,7.51,1.82,2.09,4.84,3.23,9,3.39h.53A10.81,10.81,0,0,0,119,227.4a19.05,19.05,0,0,0,2-6.38v-.18l-.16.07a4.87,4.87,0,0,1-1.74.33,3.75,3.75,0,0,1-2.39-.81c-.52-.4-.76-1.2-.74-2.5a32.21,32.21,0,0,1,.61-4.62l.06-.35.76-4.94c0-.17,0-.35,0-.52v-.06c.07-3.9-3-6.71-4.27-7.73l-.5-.39.63-.12a6.24,6.24,0,0,0,4.44-2.69,8,8,0,0,0,1.06-4.11,17.25,17.25,0,0,0-1-5.76l0-.15-3.06,1.15-.17.07-.13-.13c-.32-.3-3.61-3.54-4.24-4.16H110c-2.63.3-6,2.83-7.28,3.9l-.2.16-.18-.17c-.3-.29-1.43-1.33-1.91-1.78l-.07.09c-2.31,2.7-3.49,5.18-3.53,7.4a6.35,6.35,0,0,0,.16,1.52,6.92,6.92,0,0,0,3.33,4.25l.43.26-.44.24c-1.84,1-5.54,1.51-11,1.51-6,0-12.41-.62-14.22-.81l-.16,0-4,3.67.14.08a23.5,23.5,0,0,1,9,12.38c.85,2.65.75,6.2-.31,10.57a42.24,42.24,0,0,1-1.88,5.85l0,.12.14,0a17.43,17.43,0,0,0,4.13.47c7.59,0,12.25-3.95,13.5-7.87a12.8,12.8,0,0,0,.57-3.69,26.85,26.85,0,0,0-2.4-10.51l-.17-.37.41,0c.42,0,.84,0,1.25,0,1.62,0,3.62.2,4,1.15s-.23,3.43-1,6.59l-.05.2Zm11.48,10.68h-.54c-4.08-.15-7-1.27-8.82-3.31-1.57-1.79-2.21-4.26-1.88-7.35v0l.84-4.08c.64-2.59,1.42-5.81,1-6.93-.31-.86-1.79-1.33-4.17-1.33a18,18,0,0,0-1.86.09l-.16,0,.07.15a29.62,29.62,0,0,1,1.79,5c.69,2.6,1.3,6.38.27,9.61a10,10,0,0,1-5.15,5.72,17.78,17.78,0,0,1-8.18,1.92h0a17.78,17.78,0,0,1-3.54-.35l-.34-.07.13-.32a36.16,36.16,0,0,0,2.58-11.58,14.08,14.08,0,0,0-.57-4.51A23.62,23.62,0,0,0,71.6,203.8l-.3-.21.27-.24,3.12-2.84.34-.31h.13c1.27.14,7.93.85,14.25.85,6.07,0,10.13-.66,11.73-1.91l.16-.12-.19-.08a7.16,7.16,0,0,1-3.89-4.48,5.52,5.52,0,0,1-.15-1.45c0-2,1.12-4.37,3.21-6.92l.19-.23.22.2,1.85,1.72.09-.08c.7-.6,4.37-3.6,7.23-4l.14,0,.11.1c.25.26,3.56,3.53,4.27,4.23l2.87-1.11.28-.11.1.29a17.1,17.1,0,0,1,.87,5.36,7.66,7.66,0,0,1-1,4,6.4,6.4,0,0,1-5.18,2.76l-.34,0,.29.19h0c.33.21,5,3.35,4.9,8.1a5.21,5.21,0,0,1,0,.55v0l-.78,5a34.69,34.69,0,0,0-.66,4.89,3.23,3.23,0,0,0,.83,2.69,3.92,3.92,0,0,0,2.52.85,5.34,5.34,0,0,0,1.25-.15l.42-.11-.06.43a17.81,17.81,0,0,1-2.46,6.78A10.52,10.52,0,0,1,108.84,233.4ZM98.17,222.81c-.31,2.91.28,5.23,1.74,6.89,1.66,1.92,4.49,3,8.42,3.12h.51c8.46,0,10.63-7.85,11.15-10.88a5.31,5.31,0,0,1-1,.09,4.44,4.44,0,0,1-2.88-1,3.69,3.69,0,0,1-1-3.14,33.24,33.24,0,0,1,.67-5l0-.1.75-4.86a4.63,4.63,0,0,0,0-.51,8.12,8.12,0,0,0-2.23-5.44,12.42,12.42,0,0,0-2.41-2.17l-1.68-1.09,2-.18a5.87,5.87,0,0,0,4.75-2.49,7.12,7.12,0,0,0,1-3.67,16.61,16.61,0,0,0-.76-4.89l-2.76,1.07-.17.07-.13-.13-4.31-4.26c-2.74.5-6.39,3.53-6.8,3.88l-.48.41-.19-.17s-1.19-1.13-1.8-1.69c-1.88,2.35-2.85,4.48-2.89,6.33a5.24,5.24,0,0,0,.14,1.3,6.72,6.72,0,0,0,3.56,4.1l1.07.45-.91.72c-1.73,1.35-5.8,2-12.09,2s-12.64-.66-14.19-.83l-.15.13-2.85,2.6a24.51,24.51,0,0,1,8.66,12.32,15.22,15.22,0,0,1,.6,4.69A36.46,36.46,0,0,1,79,232a16.44,16.44,0,0,0,3.09.28h0c5,0,11.2-2.27,12.78-7.25,1.93-6-2-14.07-2-14.15L92.4,210l1-.12a18.51,18.51,0,0,1,1.92-.1c2.72,0,4.3.58,4.71,1.72s-.18,3.87-1,7.25Z" transform="translate(-34.66 -12.1)"/><path class="cls-2" d="M215,220.51l-.16-.2-.25.06a7.57,7.57,0,0,1-3.6.15c-.7-.4-.93-1.28-.91-2.41a26.33,26.33,0,0,1,.68-4.43,25.72,25.72,0,0,0,.71-4.63c.07-3.47-3.52-5.73-4.72-6.47,4.68-3.4,5.82-7,5.86-9.4a6.83,6.83,0,0,0-6.43-6.86,7.65,7.65,0,0,0-5.35,1.69,8.59,8.59,0,0,0-5.23-2.1c-.12,0-8.05.58-8.15,6.39v.24a12.17,12.17,0,0,0,4.13,8.68c-8.91,1.32-22.62-.26-24.89-.53a20.27,20.27,0,0,0-.13-2.87c-.55-3.94-2.79-8.87-6.62-11-2.64-1.51-5.67-1.55-9-.13l-.72.3.67.41a6.59,6.59,0,0,1,2.75,5.81,13.09,13.09,0,0,1-1.41,5.36c-.35.48-8.42,12.15-9.53,20.16a15.69,15.69,0,0,1-.32-3.54c.06-3.22.92-7.81,4-13.63a21.88,21.88,0,0,0,2.26-8.5,9.4,9.4,0,0,0-.89-4.39c-1.14-2.29-3.39-3.74-6.66-4.3-.09,0-2.95-.69-6.92,2.29l-.33.24.26.33a7.73,7.73,0,0,1,1.5,5.84l-.16.91c-.59,3-1.19,6.19-7.39,12.74a23.39,23.39,0,0,0-6.32,16.48c-.05,2.82-.18,10.31,10.54,11.39a14.32,14.32,0,0,0,11.15-4c.56,1.54,2.76,5.7,10.25,5.84,9.27.16,14.54-9.24,15.22-11.91l.1-.39-.4-.09a5.74,5.74,0,0,1-4.23-6.43l.87-5.24c.32-1.71.64-3.5.91-5.27a11.94,11.94,0,0,1,5.05,11,17.61,17.61,0,0,1-6,14.26l-.36.29.31.31c2.81,2.91,8.33,2.41,8.56,2.39,5-.35,8.91-2.15,11.58-5.38,3.35-4,4-9.28,4.05-12.36a17.66,17.66,0,0,0-.07-2.15c1.4-.17,2.38,0,2.84.47.61.64.38,1.8.19,2.74l-.1.66c-.24,1.64-2.23,7.67-2.26,7.74-.51,3,0,5.49,1.53,7.32,2.66,3.19,7.36,3.31,7.57,3.31,7.79.14,11.88-4.89,13.94-9.12,1.67-3.43,2.48-7.57,2.14-8m-49.15-18.94-.46,4.59c-.28,2-.65,4.07-1,6l-.88,5.3a6.28,6.28,0,0,0-.08.94,6.47,6.47,0,0,0,4.5,6.22c-.91,2.86-5.82,11.12-14.31,11S144,230,143.94,229.8l-.16-.74-.53.55a13.57,13.57,0,0,1-10.95,4.14c-10-1-9.9-7.72-9.85-10.59a22.7,22.7,0,0,1,6.1-15.94c6.37-6.72,7-10,7.58-13.14l.18-.9a7.15,7.15,0,0,0,.14-1.27,8.49,8.49,0,0,0-1.54-4.87c3.45-2.44,5.91-1.95,5.93-1.95,3,.53,5.09,1.84,6.11,3.89,2.39,4.76-1.33,12.1-1.36,12.16-6.6,12.65-3.25,19.52-3.1,19.81l.76-.2a4,4,0,0,1,0-.49c.14-7.72,9.54-21.19,9.64-21.34a14.25,14.25,0,0,0,1.49-5.69,7.69,7.69,0,0,0-2.48-6.06,8.79,8.79,0,0,1,7.63.3c3.59,2.05,5.71,6.72,6.21,10.46a18.43,18.43,0,0,1,.13,2.84c0,.26,0,.53,0,.8M209,232.72a13.07,13.07,0,0,1-10.09,4.1s-4.56-.13-7-3c-1.36-1.65-1.82-3.87-1.36-6.63.07-.19,2-6.09,2.26-7.8l.11-.63c.2-1.06.49-2.52-.39-3.44-.7-.74-2-1-3.92-.69l-.39,0,.05.4c0,.07,1,8.62-3.77,14.32-2.53,3.05-6.25,4.77-11,5.09-.06,0-4.93.4-7.57-1.89a18.46,18.46,0,0,0,6-12.94,14.12,14.12,0,0,0,0-1.58,6.43,6.43,0,0,0,.07-.94,13.15,13.15,0,0,0-5.77-11c.22-1.6.39-3.18.45-4.67,2.59.32,17.1,2,26,.42l.93-.19-.77-.54a11.85,11.85,0,0,1-4.56-8.67c-.1-5.27,7.07-5.79,7.37-5.81,0,0,3.21.08,4.94,2.08l.28.33.31-.32a6.91,6.91,0,0,1,5-1.68,6.09,6.09,0,0,1,5.64,6c-.06,3.38-2,6.44-5.93,9.11l-.18.13v.21c0,.26.14.35.61.63,1.21.76,4.42,2.77,4.37,5.8a27.43,27.43,0,0,1-.69,4.47c-.68,3.23-1.39,6.58.68,7.73a8.44,8.44,0,0,0,3.6,0c-.16,1.53-1.31,7.41-5.25,11.51" transform="translate(-34.66 -12.1)"/><path class="cls-2" d="M199.23,237.9h-.33s-5,0-7.78-3.41c-1.58-1.9-2.11-4.44-1.59-7.55v-.06c.1-.26,2-6.11,2.24-7.67l.11-.67c.17-.88.39-2-.12-2.49a2.94,2.94,0,0,0-2.32-.41c0,.42.06,1,0,1.9-.05,2.89-.65,8.36-4.11,12.53-2.72,3.29-6.68,5.13-11.78,5.48h0s-.45,0-1.19,0c-1.93,0-5.48-.33-7.6-2.52l-.52-.54.62-.5a17.22,17.22,0,0,0,5.92-14V218a11.55,11.55,0,0,0-4.56-10.38c-.25,1.63-.55,3.26-.83,4.79l-.88,5.24a5.45,5.45,0,0,0,4,6.1l.67.17-.17.66c-.68,2.69-6.08,12.29-15.5,12.12-7-.12-9.53-3.7-10.36-5.62a14.71,14.71,0,0,1-9.88,3.83,10.3,10.3,0,0,1-1.2-.06c-11-1.11-10.84-8.8-10.79-11.69a23.64,23.64,0,0,1,6.4-16.66c6.14-6.49,6.74-9.59,7.31-12.6l.17-.91a7.35,7.35,0,0,0-1.42-5.58h0l-.47-.59.57-.42a10.54,10.54,0,0,1,6.22-2.43,3.94,3.94,0,0,1,.93.09c3.37.58,5.68,2.08,6.86,4.46a9.59,9.59,0,0,1,.92,4.52,22.25,22.25,0,0,1-2.27,8.59l0,0a30.79,30.79,0,0,0-3.92,13.5,18,18,0,0,0,.06,1.83c1.85-7.94,8.85-18,9.25-18.59a12.87,12.87,0,0,0,1.38-5.22,6.29,6.29,0,0,0-2.62-5.56l-1.14-.7,1.22-.52a12.32,12.32,0,0,1,4.76-1.06,8.94,8.94,0,0,1,4.51,1.21,12.55,12.55,0,0,1,4.65,5,18.3,18.3,0,0,1,2.11,6.28,19,19,0,0,1,.14,2.66,150.19,150.19,0,0,0,16.08,1,62,62,0,0,0,7.89-.43,12.45,12.45,0,0,1-3.78-8.48v-.24c.11-6.07,8.35-6.68,8.44-6.68a9.09,9.09,0,0,1,5.24,2,8.17,8.17,0,0,1,5.34-1.59,6.54,6.54,0,0,1,4.63,2.07,7.32,7.32,0,0,1,2.09,5.08c0,2.38-1.06,5.91-5.64,9.38,1.46.93,4.57,3.14,4.5,6.5a25.89,25.89,0,0,1-.71,4.66v0a26.39,26.39,0,0,0-.67,4.38c0,1.12.22,1.82.73,2.14a5.92,5.92,0,0,0,1.24.12,8.9,8.9,0,0,0,2.18-.29l.42-.11.28.35c.49.62-.51,5-2.1,8.29C211.05,232.86,207,237.9,199.23,237.9Zm-9.14-10.84c-.49,2.93,0,5.3,1.47,7.06,2.6,3.12,7.3,3.21,7.35,3.21h.32c7.44,0,11.38-4.87,13.37-9,1.6-3.31,2.35-7.18,2.15-7.7l0,0-.07,0a9.47,9.47,0,0,1-2.32.3,4.9,4.9,0,0,1-1.44-.16l-.06,0c-.73-.42-1.07-1.3-1.05-2.67a27.15,27.15,0,0,1,.69-4.48v0a25.88,25.88,0,0,0,.7-4.55c.06-3.34-3.44-5.52-4.59-6.23l-.36-.22.34-.26c4.68-3.4,5.71-6.86,5.74-9.17a6.77,6.77,0,0,0-1.92-4.68,6,6,0,0,0-4.23-1.88,7.39,7.39,0,0,0-5.15,1.61l-.2.18-.19-.19a8.37,8.37,0,0,0-5-2c-.07,0-7.77.56-7.87,6.11v.23a11.91,11.91,0,0,0,4,8.46l.45.41-.6.09A59.62,59.62,0,0,1,183,202a147.62,147.62,0,0,1-16.4-1.06l-.26,0v-.25a19.84,19.84,0,0,0-.14-2.84c-.53-3.86-2.74-8.71-6.47-10.83a8.39,8.39,0,0,0-4.23-1.12,11.65,11.65,0,0,0-4.53,1l-.2.08.19.12a6.88,6.88,0,0,1,2.89,6.06,13.31,13.31,0,0,1-1.45,5.48l0,0s-2.16,3.06-4.46,7.22c-2.83,5.12-4.56,9.55-5,12.81l-.22,1.59-.34-1.57a15.16,15.16,0,0,1-.32-3.61,31.32,31.32,0,0,1,4-13.75v0a21.52,21.52,0,0,0,2.21-8.35,9,9,0,0,0-.85-4.26c-1.1-2.21-3.27-3.6-6.45-4.15h0a3.76,3.76,0,0,0-.8-.07,10,10,0,0,0-5.88,2.31l-.09.07.07.09h0a7.84,7.84,0,0,1,1.56,6.07l-.16.9c-.6,3.09-1.21,6.28-7.46,12.89a23.12,23.12,0,0,0-6.25,16.28c0,2.75-.17,10,10.29,11.11a9,9,0,0,0,1.13.06,14.1,14.1,0,0,0,9.79-4l.32-.3.15.41c.6,1.66,2.79,5.52,10,5.65h.23c8.93,0,14-9.11,14.7-11.69l0-.11-.11,0a6,6,0,0,1-4.46-6.75l.88-5.25c.31-1.68.64-3.48.91-5.26l.07-.48.39.29A12.21,12.21,0,0,1,171.4,218c.62,8.75-5.71,14.12-6.16,14.48h0l-.1.08.08.09c2,2,5.35,2.35,7.19,2.35a10.83,10.83,0,0,0,1.13-.05c5-.34,8.78-2.11,11.39-5.27,3.36-4,3.94-9.37,4-12.18a17.37,17.37,0,0,0-.07-2.12l0-.28.28,0c1.53-.19,2.57,0,3.09.56.71.74.46,2,.26,3l-.1.65C192.11,220.9,190.26,226.54,190.09,227.06Zm9.12,10.05h-.29s-4.7-.14-7.19-3.13c-1.42-1.72-1.9-4-1.42-6.85v0c0-.05,2-6,2.24-7.76l.12-.66c.2-1,.46-2.35-.31-3.17-.64-.65-1.87-.86-3.68-.59h-.11V215h0c.09.71.85,8.91-3.83,14.54-2.58,3.12-6.36,4.87-11.23,5.2-.09,0-.42,0-.92,0-1.71,0-4.86-.26-6.86-2l-.24-.22.24-.21a18.1,18.1,0,0,0,5.91-12.74,12.21,12.21,0,0,0,0-1.54l-.11-1.15.18.28v-.11a12.79,12.79,0,0,0-5.65-10.7l-.14-.1,0-.18a46.47,46.47,0,0,0,.46-4.64v-.31l.31,0a148.67,148.67,0,0,0,16.55,1.07,56.3,56.3,0,0,0,9.34-.65l.27-.06-.23-.16a12,12,0,0,1-4.67-8.89c-.11-5.36,6.83-6.05,7.62-6.11h0c.13,0,3.35.11,5.15,2.18l.07.09.09-.09h0a7.36,7.36,0,0,1,5.24-1.77c3.45.07,6,3.4,5.92,6.34-.06,3.47-2.1,6.61-6.05,9.34l-.06,0v.06c0,.08,0,.11.47.39,1.25.77,4.57,2.84,4.51,6.05a25.51,25.51,0,0,1-.69,4.52c-.66,3.12-1.34,6.34.51,7.41a6.37,6.37,0,0,0,1.48.15,10.17,10.17,0,0,0,1.95-.2l.38-.07,0,.38c0,.07-.75,6.91-5.32,11.68A13.28,13.28,0,0,1,199.21,237.11Zm-8.34-9.87c-.44,2.65,0,4.79,1.3,6.37,2.33,2.81,6.71,2.92,6.76,2.92h.28a12.73,12.73,0,0,0,9.59-4c3.83-4,4.89-9.49,5.12-11a10.75,10.75,0,0,1-1.67.14,6.06,6.06,0,0,1-1.69-.19l0,0c-2.25-1.26-1.53-4.7-.82-8a26.69,26.69,0,0,0,.68-4.41c.05-2.89-3.06-4.83-4.24-5.56-.45-.27-.72-.43-.74-.86v-.37l.31-.21c3.79-2.62,5.75-5.61,5.8-8.88a5.78,5.78,0,0,0-5.35-5.75H206a6.59,6.59,0,0,0-4.65,1.59l-.53.56-.49-.58c-1.57-1.81-4.49-2-4.71-2-.82.07-7.19.73-7.09,5.53A11.36,11.36,0,0,0,193,201l1.31.93-1.59.32a56.18,56.18,0,0,1-9.44.67,147.21,147.21,0,0,1-16.32-1.05c-.06,1.28-.2,2.67-.42,4.22a13.4,13.4,0,0,1,5.76,11.08,4.42,4.42,0,0,1-.08.95,15.3,15.3,0,0,1,.06,1.57,18.69,18.69,0,0,1-5.86,12.93c1.94,1.48,5,1.64,6.23,1.64.54,0,.86,0,.87,0,4.71-.32,8.36-2,10.84-5,4.59-5.53,3.75-13.74,3.71-14.08v0l-.07-.68.67-.08a10,10,0,0,1,1.48-.12,3.52,3.52,0,0,1,2.68.89c1,1,.68,2.55.47,3.67v0l-.11.63C192.88,221.12,191,226.83,190.87,227.24Zm-37,8.66h-.23c-8.71-.15-9.9-5.79-9.94-6l0-.21-.15.16a13.78,13.78,0,0,1-10.05,4.28,8.53,8.53,0,0,1-1.14-.06c-10.27-1-10.16-7.92-10.11-10.86v0a23,23,0,0,1,6.18-16.1c6.31-6.67,6.92-9.89,7.51-13l.18-.91a6.89,6.89,0,0,0,.13-1.21,8.28,8.28,0,0,0-1.49-4.71l-.16-.23.23-.17a9.74,9.74,0,0,1,5.51-2,3.67,3.67,0,0,1,.62.05h0c3.13.54,5.25,1.9,6.32,4,2.45,4.89-1.33,12.35-1.37,12.42-6,11.48-3.72,18.09-3.19,19.34l.31-.08v-.28c.06-3.18,1.63-7.65,4.68-13.3,2.16-4,4.36-7.25,5-8.16l0,0a13.72,13.72,0,0,0,1.45-5.55,7.39,7.39,0,0,0-2.38-5.83l-.36-.32.45-.17a9.09,9.09,0,0,1,7.87.32c3.68,2.11,5.84,6.88,6.35,10.67a19.17,19.17,0,0,1,.14,2.89c0,.17,0,.36,0,.54v.26l-.46,4.61c-.29,2.05-.67,4.17-1,6l-.88,5.3a6.69,6.69,0,0,0-.08.9,6.24,6.24,0,0,0,4.32,5.94l.26.09-.09.26C167.07,228.22,161.91,235.9,153.83,235.9Zm-9.89-7.44.28,1.28c0,.23,1.14,5.44,9.39,5.58h.22c8.23,0,12.79-8,13.72-10.52a6.69,6.69,0,0,1-4.43-6.38,7.93,7.93,0,0,1,.08-1l.89-5.3c.34-1.88.73-4,1-6l.45-4.58v-.24c0-.18,0-.36,0-.53a19.56,19.56,0,0,0-.12-2.8c-.49-3.66-2.56-8.24-6.07-10.25a8.31,8.31,0,0,0-6.95-.43,8.05,8.05,0,0,1,2.23,5.94,14.52,14.52,0,0,1-1.52,5.81l-.05.08c-1,1.4-9.44,13.92-9.56,21.15a3.67,3.67,0,0,0,0,.47V221l-1.2.32-.1-.21c-.15-.29-3.58-7.28,3.09-20.07,0-.08,3.7-7.25,1.36-11.9-1-2-3-3.23-5.89-3.73h0a4.27,4.27,0,0,0-.54,0,9,9,0,0,0-4.95,1.77,8.73,8.73,0,0,1,1.44,4.81,7,7,0,0,1-.15,1.31l-.18.91c-.6,3.19-1.22,6.5-7.65,13.28a22.53,22.53,0,0,0-6,15.72v0c0,2.79-.15,9.31,9.6,10.29h0s.38.05,1,.05a13.2,13.2,0,0,0,9.63-4.1Z" transform="translate(-34.66 -12.1)"/><path class="cls-2" d="M199.25,201.58l.08,0,.08,0c.26-.14,6.5-3.37,7-7a3.94,3.94,0,0,0-.74-3.14,2.74,2.74,0,0,0-2.11-.94,7.31,7.31,0,0,0-4,1.36c-.69-1.38-2.64-1.94-4.23-1.65a3.4,3.4,0,0,0-3,3.45c-.08,4.31,6.67,7.78,6.94,7.92" transform="translate(-34.66 -12.1)"/><path class="cls-2" d="M199.34,202l-.22-.11a21.93,21.93,0,0,1-3.66-2.43c-2.32-1.93-3.48-3.87-3.44-5.75a3.66,3.66,0,0,1,3.24-3.73,5.26,5.26,0,0,1,.89-.08,4.13,4.13,0,0,1,3.48,1.6,7.55,7.55,0,0,1,3.84-1.23h.09a3,3,0,0,1,2.32,1,4.27,4.27,0,0,1,.81,3.35c-.48,3.53-6,6.63-7.13,7.21Zm-3.19-11.53a5.16,5.16,0,0,0-.79.07,3.14,3.14,0,0,0-2.77,3.18c0,2.12,1.74,4.05,3.24,5.29a20.81,20.81,0,0,0,3.5,2.34,24.57,24.57,0,0,0,3.41-2.21c2-1.59,3.19-3.16,3.38-4.55a3.73,3.73,0,0,0-.67-2.91,2.46,2.46,0,0,0-1.9-.84h-.08a7.15,7.15,0,0,0-3.77,1.3l-.27.19-.15-.3A3.42,3.42,0,0,0,196.15,190.42Z" transform="translate(-34.66 -12.1)"/><path class="cls-2" d="M208.61,223.25a4.06,4.06,0,0,1-3.84-.27c-1.62-1,.42-8.9,1.34-11.86q.34-3.26-1.36-4.92c-2-2-5.36-1.58-5.5-1.57-7.75,1.12-27.1-.25-27.29-.25l-.3,0,.13.27a34.59,34.59,0,0,1,2.72,12.48c.09,6.65-3.77,13.33-3.8,13.4l-.14.24.27,0c4.5.55,8-.42,10.26-2.94,2.56-2.78,3.27-7,3.34-10.56a32.38,32.38,0,0,0-.53-6.43c5.65-.5,9.41,0,11.12,1.63a3.64,3.64,0,0,1,1.13,2.88c0,2.26-3.1,10-3.13,10.05-.12,6.51,6.11,7.13,6.17,7.13,8.55.36,9.66-9,9.66-9.1l0-.33Z" transform="translate(-34.66 -12.1)"/><path class="cls-2" d="M199.67,232.83h-.49a8,8,0,0,1-4.55-2.18,7,7,0,0,1-1.89-5.24v-.06l0-.05c0-.07,3.08-7.75,3.11-9.95a3.33,3.33,0,0,0-1-2.67c-1.24-1.14-3.66-1.73-7.19-1.73-1,0-2.18.05-3.4.16a33.73,33.73,0,0,1,.47,6.17c-.08,4.77-1.23,8.39-3.4,10.75a10.56,10.56,0,0,1-8.15,3.18,19.72,19.72,0,0,1-2.37-.15l-.71-.09.38-.61,0,0c.64-1.16,3.82-7.23,3.74-13.21a34.47,34.47,0,0,0-2.69-12.34v0l-.35-.73.8.08.39,0c6.87.44,13.1.68,18,.68a66.58,66.58,0,0,0,8.83-.44,8.56,8.56,0,0,1,.9,0A7,7,0,0,1,205,206c1.2,1.16,1.68,2.9,1.45,5.15v.06c-1.31,4.19-2.69,10.76-1.47,11.52a3.76,3.76,0,0,0,2,.59,3.91,3.91,0,0,0,1.55-.32l.29-.16.48-.25-.1.87h0a13.68,13.68,0,0,1-1.59,4.7A8.69,8.69,0,0,1,199.67,232.83Zm-6.36-7.37c-.08,6.16,5.84,6.78,5.9,6.78h.46A8,8,0,0,0,207,228a13.16,13.16,0,0,0,1.53-4.36,4.45,4.45,0,0,1-1.62.31,4.29,4.29,0,0,1-2.31-.68c-2.11-1.33,1-11.42,1.21-12.15a5.43,5.43,0,0,0-1.28-4.66,6.43,6.43,0,0,0-4.44-1.53,7.77,7.77,0,0,0-.82,0,67.85,67.85,0,0,1-8.91.44c-4.92,0-11.16-.23-18-.67l-.2,0a35.35,35.35,0,0,1,2.67,12.42c.08,6-3,12-3.76,13.41,4.33.5,7.66-.47,9.85-2.86s3.18-5.75,3.26-10.38a31.79,31.79,0,0,0-.52-6.37l-.06-.31.32,0c1.35-.12,2.62-.18,3.76-.18,3.68,0,6.23.64,7.58,1.89a4,4,0,0,1,1.22,3.09C196.41,217.6,193.59,224.77,193.31,225.46Z" transform="translate(-34.66 -12.1)"/><path class="cls-2" d="M162.63,224.2c-.93,0-2.17-.06-2.71-1.3-.95-2.19-.74-7.77.44-12,2.14-7.59,4.37-20.72-4.81-23.39l-.6-.17.42.46c.06.06,4.76,5.55-5.72,23.22-.24.41-5.78,10.09-3.28,16.19a7.25,7.25,0,0,0,5.15,4.22c.1,0,7,.74,11.95-6.43.11-.15.24-.38.14-.56s-.47-.26-1-.28" transform="translate(-34.66 -12.1)"/><path class="cls-2" d="M152.16,231.78a5.35,5.35,0,0,1-.7,0,7.52,7.52,0,0,1-5.35-4.39c-2.56-6.23,3-16,3.29-16.44,10.3-17.37,5.8-22.83,5.76-22.89l-1.11-1.2,1.58.45c9.4,2.73,7.17,16,5,23.74-1.17,4.13-1.38,9.62-.45,11.76.46,1.08,1.56,1.11,2.44,1.14h.06c.52,0,1,0,1.17.42a.84.84,0,0,1-.15.86C159.48,231.31,153.8,231.78,152.16,231.78Zm-.59-.59c.05,0,.25,0,.59,0,1.57,0,7-.46,11.08-6.33.13-.2.12-.27.12-.27s-.36-.11-.69-.12h0c-.94,0-2.35-.06-3-1.48-1-2.24-.77-7.92.43-12.15,2.08-7.4,4.25-20.14-4.31-22.94a8.81,8.81,0,0,1,1,4.94c-.17,4.79-2.48,11-6.85,18.35a35.79,35.79,0,0,0-2.64,5.9c-1.41,4.13-1.62,7.6-.62,10A7,7,0,0,0,151.57,231.19Z" transform="translate(-34.66 -12.1)"/><path class="cls-2" d="M141.34,202c2.54-5.83,4.74-10.86-1.44-13.9l-.37-.17.12.39c0,.05,1.68,5.6-5.78,16.05-.52.58-13.18,14.36-7.79,22.1a7.19,7.19,0,0,0,5,3.24c5.21.74,10.89-3.78,11.13-4l.22-.19-.27-.11s-4.52-2-5.08-5.67c-.82-5.27,1.65-11.84,3.89-17Z" transform="translate(-34.66 -12.1)"/><path class="cls-2" d="M132.3,230.11h0a8.28,8.28,0,0,1-1.23-.09,7.46,7.46,0,0,1-5.23-3.36c-2.29-3.29-1.76-8,1.59-13.89a51.27,51.27,0,0,1,6.21-8.54h0c7.29-10.22,5.75-15.73,5.73-15.79l-.31-1,1,.44c6.43,3.16,4.08,8.55,1.59,14.25l-.35.79c-2.22,5.11-4.67,11.65-3.87,16.84.54,3.44,4.87,5.43,4.92,5.45l.7.28-.58.5C142.37,226,137.33,230.11,132.3,230.11ZM140,188.5c.25,1.16.87,6.62-5.87,16.07l0,.05c-1.33,1.46-12.81,14.46-7.76,21.72a7,7,0,0,0,4.85,3.12,8.38,8.38,0,0,0,1.14.08c4.38,0,8.79-3.25,9.62-3.89-.85-.42-4.57-2.45-5.1-5.81-.82-5.34,1.66-12,3.92-17.16l.35-.79C143.64,196.05,145.66,191.41,140,188.5Z" transform="translate(-34.66 -12.1)"/><path class="cls-2" d="M103.07,195.92l1.11.78,2.18,2.05.13-.11a13.22,13.22,0,0,1,3.59-2.44c1.67-.59,4.18-2.7,4.22-4.54v-.22l-2.77.58a5.88,5.88,0,0,0-2.74-4.85c-.28,0-4,.59-4.65,2.8l-2.49-1.73-.09.11a5.06,5.06,0,0,0-1.4,3.94c.3,2,1.68,2.85,2.91,3.63" transform="translate(-34.66 -12.1)"/><path class="cls-2" d="M106.35,199.13,104,196.92l-1.1-.76c-1.2-.77-2.71-1.73-3-3.83a5.28,5.28,0,0,1,1.46-4.16h0l.27-.31,2.4,1.67a4.51,4.51,0,0,1,2.48-2.05,8.22,8.22,0,0,1,2.3-.59h.08l.08,0a6.27,6.27,0,0,1,2.86,4.74l2.44-.51.35-.07v.58c0,2-2.65,4.17-4.42,4.8a12.28,12.28,0,0,0-3.44,2.34l0,.05h0Zm-4.65-10.51a4.7,4.7,0,0,0-1.26,3.62c.28,1.85,1.55,2.65,2.77,3.44l1.16.81,2,1.88a12.62,12.62,0,0,1,3.61-2.44c1.56-.55,3.86-2.49,4-4.13l-2.41.5-.35.07V192a5.55,5.55,0,0,0-2.53-4.56c-.6.06-3.7.71-4.3,2.59l-.11.37Z" transform="translate(-34.66 -12.1)"/><path class="cls-2" d="M112.84,222.23c-1.77-1.64,0-11.4.06-11.5.17-3.4-.41-5.6-1.78-6.94-1.54-1.51-4.13-2-8.64-1.71s-13.23.41-19,.48c-6.51.06-6.51.07-6.59.23l-.05.1.07.1c2.65,3.37,5.81,7.95,6.72,13.38.94,5.63-.84,12.34-.86,12.4l-.06.24H83a9.49,9.49,0,0,0,9.65-8.67c0-.21,0-.42,0-.64.08-4.55-3.54-10.79-4.17-11.85,12.2-2.82,12.93.08,13.68,3.15.44,1.73-.23,3.82-.93,6a19.31,19.31,0,0,0-1.17,5.32c0,2.75.91,7.39,7.88,7.52,6,.11,8.52-6.27,8.54-6.33l.13-.36-.35.13a3.48,3.48,0,0,1-3.42-1.08" transform="translate(-34.66 -12.1)"/><path class="cls-2" d="M108.09,230.16h-.15c-3.16-.05-5.45-1-6.81-2.89a8.12,8.12,0,0,1-1.36-4.92,19.64,19.64,0,0,1,1.17-5.35l0-.12c.68-2.15,1.31-4.18.91-5.81-.54-2.19-1-4.08-5.48-4.08A35.9,35.9,0,0,0,88.93,208c1,1.76,4.08,7.39,4,11.67q0,.31,0,.66A9.75,9.75,0,0,1,83,229.28l-.61,0,.16-.65s1.77-6.71.85-12.25c-.9-5.36-4-9.9-6.66-13.26l-.18-.23.12-.26c.12-.26.31-.29,1.13-.32s2.54,0,5.72-.08h.61c5.9-.06,14-.16,18.36-.46q1.28-.09,2.34-.09c3.18,0,5.19.58,6.52,1.87s2,3.69,1.87,7.17v0c-.31,1.58-1.61,9.87-.14,11.23a3.71,3.71,0,0,0,2.5,1.11,1.82,1.82,0,0,0,.61-.09l.94-.34-.34.94C116.73,223.7,114.15,230.16,108.09,230.16ZM96.41,206.41c4.93,0,5.49,2.29,6,4.51.45,1.79-.21,3.89-.91,6.12l0,.12a19.29,19.29,0,0,0-1.15,5.19,7.6,7.6,0,0,0,1.26,4.57c1.24,1.71,3.38,2.61,6.35,2.66h.14a8,8,0,0,0,6.14-3,12.23,12.23,0,0,0,1.89-2.94,4,4,0,0,1-3.47-1.2c-1.9-1.76-.14-11.19,0-11.74.15-3.29-.39-5.42-1.7-6.71s-3.1-1.71-6.12-1.71c-.7,0-1.47,0-2.3.09-4.38.3-12.48.4-18.39.47H83.5c-3.89,0-5.68.06-6.24.11,2.65,3.4,5.76,8,6.66,13.37.87,5.19-.55,11.31-.83,12.39a9.2,9.2,0,0,0,9.24-8.41c0-.21,0-.4,0-.61.08-4.55-3.7-11-4.13-11.7l-.2-.34.38-.09A37.53,37.53,0,0,1,96.41,206.41Z" transform="translate(-34.66 -12.1)"/><path class="cls-2" d="M75.48,221.49l-.11.06c-4.94,3-7.7-.58-7.81-.74-3.35-1.93-4.49-6.09-5.93-11.36l-1.18-4.18a27.14,27.14,0,0,0-5.92-10.66,82.81,82.81,0,0,0,25.11-3c2-.69,3.25-.76,3.72-.18.69.83-.36,2.72-.38,2.74l-.21.37.42-.11c7.35-2.17,9.4-6.38,9-8.54-.36-1.79-2-3.82-8-3.24-5.48.53-24.56,6.71-24.73,6.77a43.33,43.33,0,0,1-17.75,1.37l-.12.33c9.27,6,16.28,29.41,16.35,29.65,2.37,9.6,9.26,9.61,9.33,9.61,4.86.09,7.11-4.62,7.85-6.66,0,0,.73-2,.46-2.2Z" transform="translate(-34.66 -12.1)"/><path class="cls-2" d="M67.39,230.71h-.14c-.75,0-7.28-.43-9.6-9.83-.07-.22-7.09-23.56-16.23-29.48l-.19-.13.3-.78.24.06a37.38,37.38,0,0,0,5.57.36,41.06,41.06,0,0,0,12-1.72c.18-.06,19.26-6.25,24.79-6.78.7-.07,1.36-.11,2-.11,4.61,0,6,1.94,6.3,3.57.46,2.25-1.62,6.64-9.15,8.87L82.2,195l.56-1c.18-.31.86-1.78.38-2.35a1.13,1.13,0,0,0-.9-.29,7.94,7.94,0,0,0-2.5.55h0a83.53,83.53,0,0,1-22.15,3c-.79,0-1.58,0-2.36,0a28.22,28.22,0,0,1,5.51,10.27l1.18,4.18c1.43,5.21,2.55,9.32,5.8,11.19l.06,0,0,.06a5,5,0,0,0,3.81,1.79,7.12,7.12,0,0,0,3.62-1.13l.29-.17.24.2c.21.16.34.47-.35,2.45l0,.07C74.63,225.92,72.35,230.71,67.39,230.71ZM42.13,191.18c9.11,6.43,16,29.32,16.07,29.55,2.23,9,8.36,9.39,9,9.4h.14c4.59,0,6.74-4.52,7.45-6.47,0,0,0,0,0-.06a8.45,8.45,0,0,0,.47-1.7A7.48,7.48,0,0,1,71.6,223a5.49,5.49,0,0,1-4.23-2c-3.42-2-4.57-6.2-6-11.51l-1.18-4.17a26.84,26.84,0,0,0-5.84-10.54l-.5-.52.72,0c1,0,2,.07,3,.07a83.4,83.4,0,0,0,22-3c2.12-.74,3.48-.77,4-.09a1.6,1.6,0,0,1,.28,1.21,5.41,5.41,0,0,1-.52,1.62c7-2.13,8.93-6.11,8.52-8.14-.48-2.39-3.16-3.45-7.66-3-5.47.53-24.49,6.69-24.67,6.76a41.71,41.71,0,0,1-12.2,1.74A43.28,43.28,0,0,1,42.13,191.18Z" transform="translate(-34.66 -12.1)"/><path class="cls-3" d="M77.65,217.5l-3.42,1.63c-5.09.56-5.67-4.26-7.45-10.29-2.19-7.46-4.9-10.47-4.9-10.47,3.59.27,7.64-.72,14.44-2.07s3.55,3,3.55,3c12.33-1.68,17.95-8.59,16.16-14.76s-14.54-4.7-19.44-3.32-19.81,5.81-26,6.54A31.72,31.72,0,0,1,40,187.39l-4.33,5.43c7.34,4.15,10.82,10.36,13.72,14.86s6.6,17.11,8.12,20.69c1.62,3.85,7,8.39,15.38,4.09,7.41-3.82,4.72-15,4.72-15" transform="translate(-34.66 -12.1)"/><path class="cls-3" d="M116.58,220.53c-1.88-1.53.12-7.22.65-12.5s-4.93-8.78-4.93-8.78c9.75-.89,5.3-12.63,5.3-12.63l-3.19,1.23L110,183.54c-3.19.36-7.49,4.11-7.49,4.11l-2.09-2c-8.21,9.6.62,13.37.62,13.37-4.51,3.52-26.09,1-26.09,1l-3.86,3.54a23.24,23.24,0,0,1,9.09,12.44c2.08,6.46-2.19,16.49-2.19,16.49,6.76,1.6,15.49-1,17.51-7.32s-2.08-14.66-2.08-14.66,5.31-.54,5.91,1.17-1.63,8.45-1.89,11-.6,10.37,10.83,10.78S120.81,221,120.81,221a4.44,4.44,0,0,1-4.23-.49" transform="translate(-34.66 -12.1)"/><path class="cls-3" d="M214.68,220.76a7.73,7.73,0,0,1-3.82.14c-2.73-1.53.14-7.83.21-11.85s-5.15-6.33-5-6.45c4.51-3.1,6.06-6.46,6.11-9.43s-2.43-6.4-6-6.46a7.2,7.2,0,0,0-5.33,1.82c-1.86-2.16-5.25-2.22-5.25-2.22s-7.85.5-7.74,6.22a12.08,12.08,0,0,0,4.71,9c-9.77,1.74-26.25-.46-26.25-.46l0,.35a21.06,21.06,0,0,0-.12-3.52c-.75-5.53-5.46-14.95-15.07-10.87,0,0,5.46,3.28,1.49,11.69,0,0-10,14.23-9.71,22.06,0,0-3.48-6.83,3.09-19.43,0,0,7.46-14.49-5-16.61,0,0-2.73-.69-6.6,2.2a8.13,8.13,0,0,1,1.58,6.18c-.69,3.38-.74,6.55-7.65,13.85a23.12,23.12,0,0,0-6.22,16.2c0,2.75-.17,10,10.19,11a13.83,13.83,0,0,0,11.31-4.25s1.16,6,10.06,6.12,14.14-8.87,14.81-11.62c0,0-5.26-1.35-4.53-6.86.41-3.1,1.31-7.2,1.89-11.18a12.44,12.44,0,0,1,5.74,11.74c.68,9.13-6.2,14.52-6.2,14.52,2.71,2.79,8.23,2.26,8.23,2.26,17.38-1.18,15.17-19.87,15.17-19.87,5.3-.75,4,2.61,3.74,4.31s-2.25,7.8-2.25,7.8c-1.66,9.93,8.71,10.11,8.71,10.11,14,.25,16-16.51,15.77-16.46" transform="translate(-34.66 -12.1)"/><path class="cls-2" d="M78,217.42l-.12-.49-3.87,1.85c-4,.4-4.88-2.88-6.24-7.84l-.64-2.22a33.32,33.32,0,0,0-4.44-9.91c2.9.06,6.18-.61,10.92-1.57l2.75-.55c2.77-.56,3.54-.09,3.75.24.37.58-.33,1.78-.59,2.15l-.57.76,1-.13c7.08-1,12.64-3.83,15.25-7.83a8.81,8.81,0,0,0,1.23-7.43c-1.86-6.4-14.48-5.14-19.94-3.59L75,181.3c-6.11,1.76-18.8,5.42-24.38,6.08A30.91,30.91,0,0,1,40.14,187l-.25-.05-4.79,6,.4.22c6.63,3.77,10.07,9.19,12.83,13.54l.76,1.2c1.95,3,4.34,10,6.08,15l2,5.58A10.22,10.22,0,0,0,63,234c3,1.09,6.52.67,10.13-1.19,7.61-3.93,4.95-15.3,4.92-15.4M72.76,232.1c-3.42,1.77-6.7,2.17-9.49,1.15a9.29,9.29,0,0,1-5.36-5l-2-5.52c-1.76-5.12-4.16-12.11-6.15-15.23L49,206.29c-2.75-4.36-6.19-9.71-12.73-13.56.46-.56,3.65-4.55,3.91-4.9a31.68,31.68,0,0,0,10.49.35c5.63-.68,18.37-4.35,24.49-6.1l1.53-.44c4.46-1.28,17.21-2.91,19,3A7.54,7.54,0,0,1,96,187a8.5,8.5,0,0,1-1.42,4.47c-2.38,3.64-7.42,6.25-13.85,7.3a3.24,3.24,0,0,0,.38-1.35,1.71,1.71,0,0,0-.24-.9c-.57-.9-2.07-1.1-4.57-.6l-2.76.56c-5.16,1.06-8.55,1.75-11.57,1.52l-1-.08.66.75s2.67,3.05,4.82,10.3l.62,2.22c1.37,5,2.45,8.89,7.24,8.37l3.08-1.44a22.24,22.24,0,0,1,.36,4.29c-.06,3.38-1,7.68-4.95,9.72" transform="translate(-34.66 -12.1)"/><path class="cls-2" d="M116.83,220.2a2.83,2.83,0,0,1-.64-2.27,36.32,36.32,0,0,1,.67-4.92l.76-4.95c0-.2,0-.41,0-.61.06-4-2.93-6.83-4.38-8a6.49,6.49,0,0,0,4.63-2.83A8.42,8.42,0,0,0,119,192.4a17.77,17.77,0,0,0-1-5.91l-.15-.37-3.33,1.26-4.33-4.27-.19,0c-2.85.32-6.41,3.12-7.44,4-.38-.37-2.12-2-2.12-2l-.27.31c-2.35,2.75-3.56,5.29-3.6,7.58a6.46,6.46,0,0,0,.17,1.59,7.31,7.31,0,0,0,3.46,4.44c-5.26,2.87-24.94.67-25.15.65l-.18,0-4.41,4,.47.28a23.07,23.07,0,0,1,8.92,12.22c2,6.25-2.14,16.12-2.18,16.22l-.19.43.47.11c7,1.66,15.87-1,18-7.59a13,13,0,0,0,.58-3.77A27.13,27.13,0,0,0,94.06,211c2-.14,4.61,0,4.93.92s-.43,4.11-1,6.62l-.88,4.19c-.33,3.23.35,5.84,2,7.74,1.88,2.16,5,3.33,9.2,3.49,11.69.42,12.92-12.73,12.93-12.86l.06-.67-.61.27a4,4,0,0,1-3.83-.45m-8.51,12.9c-4-.14-6.9-1.22-8.63-3.21-1.52-1.73-2.12-4.12-1.81-7.13l.84-4.07c.71-2.9,1.43-5.91,1-7.08-.68-1.91-5.39-1.53-6.32-1.44l-.58.07.25.51c0,.07,4,8.26,2,14.37-1.89,5.93-10.13,8.42-16.55,7.1a36.66,36.66,0,0,0,2.6-11.68,14.24,14.24,0,0,0-.59-4.61,23.92,23.92,0,0,0-8.84-12.37l3.37-3.06c1.93.21,21.73,2.35,26.19-1.12l.53-.43-.63-.26a6.94,6.94,0,0,1-3.72-4.29,5.72,5.72,0,0,1-.15-1.38c0-2,1.11-4.26,3.15-6.74l2,1.9.27-.24s4.09-3.52,7.1-4l4.41,4.35s2.45-.94,3-1.18a17.09,17.09,0,0,1,.86,5.28,7.3,7.3,0,0,1-1,3.81,6.13,6.13,0,0,1-5,2.63l-1.16.1,1,.64s4.86,3.17,4.78,7.85l0,.54-.76,4.88a35.47,35.47,0,0,0-.69,5,3.51,3.51,0,0,0,.94,2.91,4.6,4.6,0,0,0,4,.76c-.36,2.45-2.33,11.86-12,11.51" transform="translate(-34.66 -12.1)"/><path class="cls-2" d="M215,220.51l-.16-.2-.25.06a7.57,7.57,0,0,1-3.6.15c-.7-.4-.93-1.28-.91-2.41a26.33,26.33,0,0,1,.68-4.43,25.72,25.72,0,0,0,.71-4.63c.07-3.47-3.52-5.73-4.72-6.47,4.68-3.4,5.82-7,5.86-9.4a6.83,6.83,0,0,0-6.43-6.86,7.65,7.65,0,0,0-5.35,1.69,8.59,8.59,0,0,0-5.23-2.1c-.12,0-8.05.58-8.15,6.39v.24a12.17,12.17,0,0,0,4.13,8.68c-8.91,1.32-22.62-.26-24.89-.53a20.27,20.27,0,0,0-.13-2.87c-.55-3.94-2.79-8.87-6.62-11-2.64-1.51-5.67-1.55-9-.13l-.72.3.67.41a6.59,6.59,0,0,1,2.75,5.81,13.09,13.09,0,0,1-1.41,5.36c-.35.48-8.42,12.15-9.53,20.16a15.69,15.69,0,0,1-.32-3.54c.06-3.22.92-7.81,4-13.63a21.88,21.88,0,0,0,2.26-8.5,9.4,9.4,0,0,0-.89-4.39c-1.14-2.29-3.39-3.74-6.66-4.3-.09,0-2.95-.69-6.92,2.29l-.33.24.26.33a7.73,7.73,0,0,1,1.5,5.84l-.16.91c-.59,3-1.19,6.19-7.39,12.74a23.39,23.39,0,0,0-6.32,16.48c-.05,2.82-.18,10.31,10.54,11.39a14.32,14.32,0,0,0,11.15-4c.56,1.54,2.76,5.7,10.25,5.84,9.27.16,14.54-9.24,15.22-11.91l.1-.39-.4-.09a5.74,5.74,0,0,1-4.23-6.43l.87-5.24c.32-1.71.64-3.5.91-5.27a11.94,11.94,0,0,1,5.05,11,17.61,17.61,0,0,1-6,14.26l-.36.29.31.31c2.81,2.91,8.33,2.41,8.56,2.39,5-.35,8.91-2.15,11.58-5.38,3.35-4,4-9.28,4.05-12.36a17.66,17.66,0,0,0-.07-2.15c1.4-.17,2.38,0,2.84.47.61.64.38,1.8.19,2.74l-.1.66c-.24,1.64-2.23,7.67-2.26,7.74-.51,3,0,5.49,1.53,7.32,2.66,3.19,7.36,3.31,7.57,3.31,7.79.14,11.88-4.89,13.94-9.12,1.67-3.43,2.48-7.57,2.14-8m-49.15-18.94-.46,4.59c-.28,2-.65,4.07-1,6l-.88,5.3a6.28,6.28,0,0,0-.08.94,6.47,6.47,0,0,0,4.5,6.22c-.91,2.86-5.82,11.12-14.31,11S144,230,143.94,229.8l-.16-.74-.53.55a13.57,13.57,0,0,1-10.95,4.14c-10-1-9.9-7.72-9.85-10.59a22.7,22.7,0,0,1,6.1-15.94c6.37-6.72,7-10,7.58-13.14l.18-.9a7.15,7.15,0,0,0,.14-1.27,8.49,8.49,0,0,0-1.54-4.87c3.45-2.44,5.91-1.95,5.93-1.95,3,.53,5.09,1.84,6.11,3.89,2.39,4.76-1.33,12.1-1.36,12.16-6.6,12.65-3.25,19.52-3.1,19.81l.76-.2a4,4,0,0,1,0-.49c.14-7.72,9.54-21.19,9.64-21.34a14.25,14.25,0,0,0,1.49-5.69,7.69,7.69,0,0,0-2.48-6.06,8.79,8.79,0,0,1,7.63.3c3.59,2.05,5.71,6.72,6.21,10.46a18.43,18.43,0,0,1,.13,2.84c0,.26,0,.53,0,.8M209,232.72a13.07,13.07,0,0,1-10.09,4.1s-4.56-.13-7-3c-1.36-1.65-1.82-3.87-1.36-6.63.07-.19,2-6.09,2.26-7.8l.11-.63c.2-1.06.49-2.52-.39-3.44-.7-.74-2-1-3.92-.69l-.39,0,.05.4c0,.07,1,8.62-3.77,14.32-2.53,3.05-6.25,4.77-11,5.09-.06,0-4.93.4-7.57-1.89a18.46,18.46,0,0,0,6-12.94,14.12,14.12,0,0,0,0-1.58,6.43,6.43,0,0,0,.07-.94,13.15,13.15,0,0,0-5.77-11c.22-1.6.39-3.18.45-4.67,2.59.32,17.1,2,26,.42l.93-.19-.77-.54a11.85,11.85,0,0,1-4.56-8.67c-.1-5.27,7.07-5.79,7.37-5.81,0,0,3.21.08,4.94,2.08l.28.33.31-.32a6.91,6.91,0,0,1,5-1.68,6.09,6.09,0,0,1,5.64,6c-.06,3.38-2,6.44-5.93,9.11l-.18.13v.21c0,.26.14.35.61.63,1.21.76,4.42,2.77,4.37,5.8a27.43,27.43,0,0,1-.69,4.47c-.68,3.23-1.39,6.58.68,7.73a8.44,8.44,0,0,0,3.6,0c-.16,1.53-1.31,7.41-5.25,11.51" transform="translate(-34.66 -12.1)"/><path class="cls-4" d="M199.25,201.58l.08,0,.08,0c.26-.14,6.5-3.37,7-7a3.94,3.94,0,0,0-.74-3.14,2.74,2.74,0,0,0-2.11-.94,7.31,7.31,0,0,0-4,1.36c-.69-1.38-2.64-1.94-4.23-1.65a3.4,3.4,0,0,0-3,3.45c-.08,4.31,6.67,7.78,6.94,7.92" transform="translate(-34.66 -12.1)"/><path class="cls-4" d="M208.61,223.25a4.06,4.06,0,0,1-3.84-.27c-1.62-1,.42-8.9,1.34-11.86q.34-3.26-1.36-4.92c-2-2-5.36-1.58-5.5-1.57-7.75,1.12-27.1-.25-27.29-.25l-.3,0,.13.27a34.59,34.59,0,0,1,2.72,12.48c.09,6.65-3.77,13.33-3.8,13.4l-.14.24.27,0c4.5.55,8-.42,10.26-2.94,2.56-2.78,3.27-7,3.34-10.56a32.38,32.38,0,0,0-.53-6.43c5.65-.5,9.41,0,11.12,1.63a3.64,3.64,0,0,1,1.13,2.88c0,2.26-3.1,10-3.13,10.05-.12,6.51,6.11,7.13,6.17,7.13,8.55.36,9.66-9,9.66-9.1l0-.33Z" transform="translate(-34.66 -12.1)"/><path class="cls-4" d="M162.63,224.2c-.93,0-2.17-.06-2.71-1.3-.95-2.19-.74-7.77.44-12,2.14-7.59,4.37-20.72-4.81-23.39l-.6-.17.42.46c.06.06,4.76,5.55-5.72,23.22-.24.41-5.78,10.09-3.28,16.19a7.25,7.25,0,0,0,5.15,4.22c.1,0,7,.74,11.95-6.43.11-.15.24-.38.14-.56s-.47-.26-1-.28" transform="translate(-34.66 -12.1)"/><path class="cls-4" d="M141.34,202c2.54-5.83,4.74-10.86-1.44-13.9l-.37-.17.12.39c0,.05,1.68,5.6-5.78,16.05-.52.58-13.18,14.36-7.79,22.1a7.19,7.19,0,0,0,5,3.24c5.21.74,10.89-3.78,11.13-4l.22-.19-.27-.11s-4.52-2-5.08-5.67c-.82-5.27,1.65-11.84,3.89-17Z" transform="translate(-34.66 -12.1)"/><path class="cls-4" d="M103.07,195.92l1.11.78,2.18,2.05.13-.11a13.22,13.22,0,0,1,3.59-2.44c1.67-.59,4.18-2.7,4.22-4.54v-.22l-2.77.58a5.88,5.88,0,0,0-2.74-4.85c-.28,0-4,.59-4.65,2.8l-2.49-1.73-.09.11a5.06,5.06,0,0,0-1.4,3.94c.3,2,1.68,2.85,2.91,3.63" transform="translate(-34.66 -12.1)"/><path class="cls-4" d="M112.84,222.23c-1.77-1.64,0-11.4.06-11.5.17-3.4-.41-5.6-1.78-6.94-1.54-1.51-4.13-2-8.64-1.71s-13.23.41-19,.48c-6.51.06-6.51.07-6.59.23l-.05.1.07.1c2.65,3.37,5.81,7.95,6.72,13.38.94,5.63-.84,12.34-.86,12.4l-.06.24H83a9.49,9.49,0,0,0,9.65-8.67c0-.21,0-.42,0-.64.08-4.55-3.54-10.79-4.17-11.85,12.2-2.82,12.93.08,13.68,3.15.44,1.73-.23,3.82-.93,6a19.31,19.31,0,0,0-1.17,5.32c0,2.75.91,7.39,7.88,7.52,6,.11,8.52-6.27,8.54-6.33l.13-.36-.35.13a3.48,3.48,0,0,1-3.42-1.08" transform="translate(-34.66 -12.1)"/><path class="cls-4" d="M75.48,221.49l-.11.06c-4.94,3-7.7-.58-7.81-.74-3.35-1.93-4.49-6.09-5.93-11.36l-1.18-4.18a27.14,27.14,0,0,0-5.92-10.66,82.81,82.81,0,0,0,25.11-3c2-.69,3.25-.76,3.72-.18.69.83-.36,2.72-.38,2.74l-.21.37.42-.11c7.35-2.17,9.4-6.38,9-8.54-.36-1.79-2-3.82-8-3.24-5.48.53-24.56,6.71-24.73,6.77a43.33,43.33,0,0,1-17.75,1.37l-.12.33c9.27,6,16.28,29.41,16.35,29.65,2.37,9.6,9.26,9.61,9.33,9.61,4.86.09,7.11-4.62,7.85-6.66,0,0,.73-2,.46-2.2Z" transform="translate(-34.66 -12.1)"/></svg>