<svg id="Layer_1" data-name="Layer 1" xmlns="http://www.w3.org/2000/svg" viewBox="0 0 137.29 225.22"><defs><style>.cls-1{fill:#fff;}</style></defs><polygon class="cls-1" points="0 197.82 60.42 199.11 60.42 195.78 60.32 195.8 0 197.82"/><polygon class="cls-1" points="137.26 197.12 76.7 195.78 76.7 199.11 76.81 199.11 137.26 197.12"/><path class="cls-1" d="M57.45,210.61v-2a15.77,15.77,0,0,0,2.48-.28.86.86,0,0,0,.36-.29,1.54,1.54,0,0,0,.21-.73c.1-.77.18-2.37.24-4.88,0-1.19,0-3.26,0-6.23q0-4,0-7a21,21,0,0,0-.24-3.63.93.93,0,0,0-.24-.42,1.23,1.23,0,0,0-.6-.23c-.82-.12-1.56-.21-2.21-.24V183c2.55.08,4.31.12,5.27.12,1.27,0,2.56,0,3.85-.12l1.62,3.86,1.3,2.93,5.89,12.78c1.27-2.56,2.21-4.54,2.84-6l2.44-5.41c1.37-3,2.2-4.87,2.5-5.55s.65-1.6,1-2.65c1.62.08,2.66.14,3.11.14l5.52-.14v1.66h-.25a3.84,3.84,0,0,0-2.38.45A2.58,2.58,0,0,0,89.7,187c0,1.08,0,1.9,0,2.47l-.1,5.46v6.87c0,1.65,0,2.63,0,2.92.1,1.65.19,2.66.26,3a.93.93,0,0,0,.21.42.92.92,0,0,0,.42.26,18.7,18.7,0,0,0,2.33.21v2l-5.91-.13-5.78.13v-2a9,9,0,0,0,2.62-.27,1.42,1.42,0,0,0,.47-.92,44.32,44.32,0,0,0,.14-4.85v-14.2l-4.3,9.16L78,202.09c-.56,1.19-1.31,2.92-2.31,5.19-.6,1.39-1.08,2.5-1.42,3.34H73c-.45-1.07-1.09-2.58-1.94-4.49-1.43-3.23-2.52-5.66-3.27-7.27L63,188.38V198c0,1.61,0,3.51.06,5.72s.09,3.45.14,3.72a1.68,1.68,0,0,0,.23.65,1.37,1.37,0,0,0,.55.33,12.88,12.88,0,0,0,2.28.24v2c-1.38-.08-2.81-.12-4.26-.12C60.07,210.49,58.56,210.53,57.45,210.61Z" transform="translate(-57.33 -20.2)"/><path class="cls-1" d="M111.48,199.47c-1.12.05-2.37.07-3.79.07s-2.77,0-3.91-.07l3.76-9.77,3.94,9.77m-7,11v-2.34a6.94,6.94,0,0,1-2.62-.34.7.7,0,0,1-.3-.64,14,14,0,0,1,.92-3.25l.8-2.28h9.46l1.59,4.15a5.62,5.62,0,0,1,.42,1.57.58.58,0,0,1-.28.54,10.38,10.38,0,0,1-2.52.25v2.34l6.45-.12,5.12.12v-2.34l-.8-.08a8.76,8.76,0,0,1-1.07-.14,1.07,1.07,0,0,1-.38-.24,1.5,1.5,0,0,1-.36-.49l-.73-1.75L119,202.87l-8.22-19.8h-2.62l-1.62,4.3-4.81,12.22c-.9,2.31-1.51,3.85-1.83,4.64-.7,1.67-1.12,2.63-1.26,2.9a2.51,2.51,0,0,1-.41.55,1.57,1.57,0,0,1-.49.28,16.86,16.86,0,0,1-1.78.19v2.34l4.24-.12Z" transform="translate(-57.33 -20.2)"/><path class="cls-1" d="M122.12,215.83l.42-.26a7.29,7.29,0,0,0,1.46,1.15,2.65,2.65,0,0,0,1.18.3,1.62,1.62,0,0,0,1.12-.35,1.9,1.9,0,0,0,.55-1,15.44,15.44,0,0,0,.23-2.79c.08-2.83.11-4.41.11-4.7V192.55c0-1.72,0-3.29,0-4.68a11.51,11.51,0,0,0-.22-2.46.73.73,0,0,0-.25-.33,1.28,1.28,0,0,0-.71-.2l-2.51-.11V183c2.36.08,4.78.14,7.2.14,2,0,3.76-.06,5.22-.14v1.74c-1.26.05-2,.08-2.26.13a1.16,1.16,0,0,0-.7.38,1.83,1.83,0,0,0-.29,1c-.09,1.1-.13,2.63-.13,4.59v8.31l0,7.76a17.42,17.42,0,0,1-.54,4.92,11.16,11.16,0,0,1-1.8,3.64,12.63,12.63,0,0,1-2.09,2.19,10.63,10.63,0,0,1-2.39,1.57,5.43,5.43,0,0,1-2.17.55,4,4,0,0,1-1.5-.33C122.09,218.59,122.12,217.35,122.12,215.83Z" transform="translate(-57.33 -20.2)"/><path class="cls-1" d="M145.35,190.32a7.34,7.34,0,0,1,2.74-3.79,7.81,7.81,0,0,1,4.56-1.31,7.62,7.62,0,0,1,3.76.82,7.1,7.1,0,0,1,2.48,2.35,11.73,11.73,0,0,1,1.61,3.7,18.84,18.84,0,0,1,.55,4.8,17.88,17.88,0,0,1-1,6.54,7.47,7.47,0,0,1-2.86,3.8,8.31,8.31,0,0,1-8.47-.06,8.28,8.28,0,0,1-3-4,19,19,0,0,1-1.17-7.24,17.25,17.25,0,0,1,.84-5.56m-4.82,14.12a11,11,0,0,0,4.66,4.51,15.28,15.28,0,0,0,7.1,1.54,17.19,17.19,0,0,0,6.78-1.27,12.15,12.15,0,0,0,6.45-6.68,17.85,17.85,0,0,0,1.19-6.55,16.22,16.22,0,0,0-.42-3.83,12.41,12.41,0,0,0-1.21-3.17,11.66,11.66,0,0,0-2.36-2.83,10.86,10.86,0,0,0-3.57-2.1,17.63,17.63,0,0,0-6.06-1,18.45,18.45,0,0,0-6.2,1,12.26,12.26,0,0,0-4.12,2.56,12.61,12.61,0,0,0-2.91,4.33,16.66,16.66,0,0,0-1,6A15.17,15.17,0,0,0,140.53,204.44Z" transform="translate(-57.33 -20.2)"/><path class="cls-1" d="M169.21,184.66v-1.57l3,.08c.83,0,2,0,3.53,0,1.3,0,2.42,0,3.35-.08,1.54-.05,2.8-.09,3.8-.09a16.3,16.3,0,0,1,4.37.43,4.64,4.64,0,0,1,2.47,1.78,5.32,5.32,0,0,1,1,3.32,6.86,6.86,0,0,1-1.4,4.21,9.28,9.28,0,0,1-4.28,3,19.85,19.85,0,0,0,1,1.76c.4.6.62,1,.69,1.09s.14.24.22.36l2.88,4.46c.76,1.19,1.19,1.81,1.24,1.91.93,1.28,1.5,2,1.71,2.25a2,2,0,0,0,.61.5,3.51,3.51,0,0,0,1.17.15v2.38c-1.89,0-3.28-.08-4.13-.08-1,0-2,0-3,.08a8.56,8.56,0,0,0-.45-1.9l-4-6.73c-1.14-1.94-2.11-3.48-2.89-4.59a6.12,6.12,0,0,0-1.16-1.27l.2-.63a7.41,7.41,0,0,0,3.37-.47,4.39,4.39,0,0,0,1.91-2,6.35,6.35,0,0,0,.79-3.15,4.92,4.92,0,0,0-.83-2.92,4.17,4.17,0,0,0-2-1.62,11.69,11.69,0,0,0-4.57-.14c0,.45-.06,1.5-.1,3.11q-.1,5.42-.11,7.24,0,2.87.07,6.06c0,2.64.07,4.13.1,4.5a4,4,0,0,0,.21,1.38.78.78,0,0,0,.24.28,1.61,1.61,0,0,0,.53.21c.24,0,1,.08,2.15.12v2.44c-2.1-.08-4.25-.12-6.42-.12q-2.9,0-5.37.12v-2.44a13.38,13.38,0,0,0,2.51-.22.42.42,0,0,0,.32-.22.85.85,0,0,0,.16-.52,19.31,19.31,0,0,0,.19-2.24l.14-5.61v-7.09l-.06-4a12.74,12.74,0,0,0-.23-2.86A.61.61,0,0,0,172,185,9.64,9.64,0,0,0,169.21,184.66Z" transform="translate(-57.33 -20.2)"/><path class="cls-1" d="M76.36,231.37H75.27c0-.3,0-.73,0-1.3a6.42,6.42,0,0,0-.14-1,3.27,3.27,0,0,0-.73-.67,7.13,7.13,0,0,0-2-.93,9.18,9.18,0,0,0-2.62-.35,7.32,7.32,0,0,0-5.47,2.11,8.08,8.08,0,0,0-2,5.83,9.25,9.25,0,0,0,2.16,6.42,6.93,6.93,0,0,0,5.31,2.38,8.06,8.06,0,0,0,1.77-.19,8.9,8.9,0,0,0,1.7-.56c0-.25.05-.71.07-1.42s0-1.12,0-1.28a6,6,0,0,0-.11-1.55.58.58,0,0,0-.38-.23,16.8,16.8,0,0,0-2.58-.26v-1.1l4.08.06,4.11-.06v.9a2,2,0,0,0-1,.45,1.66,1.66,0,0,0-.14.75c0,1-.07,1.8-.07,2.25a17.54,17.54,0,0,0,.13,2.14,32,32,0,0,1-4.44,1.3,18.66,18.66,0,0,1-3.78.39,13.42,13.42,0,0,1-5.43-1,9.63,9.63,0,0,1-2.83-1.9,8.34,8.34,0,0,1-1.78-2.5,10.7,10.7,0,0,1-1-4.61,10.22,10.22,0,0,1,.64-3.75,8.68,8.68,0,0,1,1.77-2.79,9.67,9.67,0,0,1,2.57-1.94,12.12,12.12,0,0,1,3-1.06,17.67,17.67,0,0,1,3.46-.33,20.92,20.92,0,0,1,4.31.43,14.84,14.84,0,0,1,3.12.93l.12.26A28.75,28.75,0,0,0,76.36,231.37Z" transform="translate(-57.33 -20.2)"/><path class="cls-1" d="M88.46,227v-1.12l2.18.07c.61,0,1.47,0,2.6,0,1,0,1.77,0,2.45-.06,1.13-.05,2.07-.08,2.8-.08a12.55,12.55,0,0,1,3.2.31,3.54,3.54,0,0,1,1.83,1.28,3.74,3.74,0,0,1,.74,2.36,4.85,4.85,0,0,1-1,3,6.92,6.92,0,0,1-3.15,2.14c.23.41.49.83.77,1.25s.47.68.52.77a2.26,2.26,0,0,0,.16.26l2.11,3.16.92,1.35c.68.9,1.1,1.44,1.25,1.6a1.35,1.35,0,0,0,.45.33,2.32,2.32,0,0,0,.86.11v1.21c-1.4,0-2.41-.06-3-.06s-1.46,0-2.17.06a3.22,3.22,0,0,0-.33-.78l-2.92-4.82c-.83-1.39-1.54-2.47-2.13-3.27a4.31,4.31,0,0,0-.85-.89l.16-.45a5.87,5.87,0,0,0,2.47-.34,3.3,3.3,0,0,0,1.4-1.4,4.45,4.45,0,0,0,.57-2.25,3.47,3.47,0,0,0-.6-2.09,3.05,3.05,0,0,0-1.49-1.16,6.71,6.71,0,0,0-2-.21,7.07,7.07,0,0,0-1.3.12c0,.32,0,1-.08,2.21-.06,2.57-.08,4.29-.08,5.16,0,1.37,0,2.82,0,4.35,0,1.87.06,2.94.08,3.19a2.8,2.8,0,0,0,.15,1,.52.52,0,0,0,.17.2,1.09,1.09,0,0,0,.4.14,11.71,11.71,0,0,0,1.59.08v1.21c-1.56-.07-3.15-.1-4.73-.1-1.42,0-2.74,0-3.94.1v-1.21a9.33,9.33,0,0,0,1.84-.15.37.37,0,0,0,.23-.13.93.93,0,0,0,.12-.38,10.47,10.47,0,0,0,.14-1.61l.1-4V232.4l0-2.89a8.16,8.16,0,0,0-.17-2,.76.76,0,0,0-.2-.24A8.9,8.9,0,0,0,88.46,227Z" transform="translate(-57.33 -20.2)"/><path class="cls-1" d="M117.08,235.62a11.72,11.72,0,0,1,.76-4.36A8.58,8.58,0,0,1,120,228.1a8.84,8.84,0,0,1,3-1.87,14.07,14.07,0,0,1,4.62-.73,13.9,13.9,0,0,1,4.51.7,8.23,8.23,0,0,1,2.65,1.54,8,8,0,0,1,1.76,2.06,8.82,8.82,0,0,1,.9,2.3,11.39,11.39,0,0,1,.32,2.77,12.62,12.62,0,0,1-.89,4.77,8.63,8.63,0,0,1-1.92,2.91,8.79,8.79,0,0,1-2.88,1.95,12.89,12.89,0,0,1-5,.92,11.55,11.55,0,0,1-5.27-1.11,8.21,8.21,0,0,1-3.47-3.29A10.73,10.73,0,0,1,117.08,235.62Zm4.22-.82a14,14,0,0,0,.86,5.27A6.15,6.15,0,0,0,124.4,243a6,6,0,0,0,3.23.86,5.9,5.9,0,0,0,3.08-.81,5.45,5.45,0,0,0,2.13-2.78,14.9,14.9,0,0,0,.35-8.24,8.37,8.37,0,0,0-1.19-2.7,5.45,5.45,0,0,0-1.83-1.7,5.72,5.72,0,0,0-2.81-.59,6,6,0,0,0-3.4.94,5.31,5.31,0,0,0-2,2.77A12,12,0,0,0,121.3,234.8Z" transform="translate(-57.33 -20.2)"/><path class="cls-1" d="M147,227v-1.13l4.44.1,1.84,0,1.84-.05.51,0V227a4.2,4.2,0,0,0-1.87.26.67.67,0,0,0-.27.48,21.85,21.85,0,0,0-.19,3.73v3.17l0,1.6c0,1.66,0,2.69,0,3.09a4.47,4.47,0,0,0,.65,2.06,3.56,3.56,0,0,0,1.59,1.27,6.49,6.49,0,0,0,2.72.49,6,6,0,0,0,3-.65,3.68,3.68,0,0,0,1.61-1.69,10.82,10.82,0,0,0,.47-3.94V234c0-2.4,0-3.87,0-4.39a8.81,8.81,0,0,0-.18-2.08.68.68,0,0,0-.32-.33,5.68,5.68,0,0,0-2-.28v-1.13c1.65.07,2.62.1,2.94.1h.37l3-.09V227a3.74,3.74,0,0,0-1.59.21.72.72,0,0,0-.28.42,24.36,24.36,0,0,0-.19,2.76c-.07,1.64-.1,2.93-.1,3.88v3.21a18.62,18.62,0,0,1-.18,2.54,5.85,5.85,0,0,1-.71,2.24,6,6,0,0,1-1.52,1.68,7,7,0,0,1-2.34,1.13,11.4,11.4,0,0,1-3.13.39,13.19,13.19,0,0,1-3.88-.57,6.07,6.07,0,0,1-2.14-1.09,5,5,0,0,1-1.8-3.19c0-.33-.07-1.21-.07-2.65v-6.09c0-1.27,0-2.42-.06-3.45a2.65,2.65,0,0,0-.17-.87,1.32,1.32,0,0,0-.34-.36Z" transform="translate(-57.33 -20.2)"/><path class="cls-1" d="M179,227v-1.13l4,.1,6.11-.13a8.89,8.89,0,0,1,2.83.37,3.86,3.86,0,0,1,1.78,1.34,4,4,0,0,1,.74,2.52,5.89,5.89,0,0,1-.71,2.86,5.48,5.48,0,0,1-2.24,2.18,6.53,6.53,0,0,1-3.25.86,7.81,7.81,0,0,1-.86-.05,7.56,7.56,0,0,1-.83-.14,5.68,5.68,0,0,0-.48-1l.27-.31.58.15a2.9,2.9,0,0,0,.48,0,2.8,2.8,0,0,0,2.18-.94,3.87,3.87,0,0,0,.87-2.73,3.94,3.94,0,0,0-.91-2.81,3.29,3.29,0,0,0-2.51-.94,9,9,0,0,0-1.7.18c-.05.57-.08,1.39-.09,2.48l0,2.68v5.17c0,1.28,0,2.6.07,4a6.54,6.54,0,0,0,.15,1.51.58.58,0,0,0,.18.23,1,1,0,0,0,.47.17l1.84.11v1.21c-2.33-.07-4.09-.1-5.26-.1s-2.53,0-3.7.1v-1.21a5.27,5.27,0,0,0,1.91-.23.32.32,0,0,0,.18-.2,3.26,3.26,0,0,0,.16-1c.11-1.45.15-3.07.15-4.86v-4.82l-.07-2.57c0-1.1,0-1.78-.06-2.06a1.71,1.71,0,0,0-.12-.59.61.61,0,0,0-.2-.19,1.25,1.25,0,0,0-.46-.14Z" transform="translate(-57.33 -20.2)"/><path class="cls-1" d="M173.94,31.89a.55.55,0,0,0-.15-.19l0,0h0a.71.71,0,0,0-.14-.1.74.74,0,0,0-.28-.08H135.8l9.41-10.28a.55.55,0,0,0,.13-.44h0v0a.58.58,0,0,0,0-.19.83.83,0,0,0-.13-.14l-.05-.06-.13-.08a1,1,0,0,0-.23-.06H106.44a.63.63,0,0,0-.65.55.6.6,0,0,0,.26.54l9.28,10.2H77.77a.6.6,0,0,0-.32.1l-.06,0-.07,0a.85.85,0,0,0-.14.21h0v0a.55.55,0,0,0,0,.31.07.07,0,0,0,0,.05.47.47,0,0,0,.13.24c.08.08,7.76,8.31,7.76,18.43V161.56c0,3.19-4.58,8.06-4.62,8.11s0,0,0,0a.81.81,0,0,0-.1.21.68.68,0,0,0,0,.2v.06s0,0,0,0,0,.08,0,.12a.6.6,0,0,0,.36.3l.08,0a.38.38,0,0,0,.15,0h.24l1,0,24.23,0h0a.7.7,0,0,0,.32-.09l.05,0a.63.63,0,0,0,.21-.22,0,0,0,0,1,0,0s0,0,0,0a1,1,0,0,0,0-.1.37.37,0,0,0,0-.21h0a.56.56,0,0,0-.14-.29s0,0,0,0-4.61-4.93-4.61-8.12c0-2.5,0-100.61,0-109.28H117c0,8.54,0,107.2,0,109.27,0,3.19-4.54,8.08-4.59,8.13l0,0a.49.49,0,0,0-.13.28s0,0,0,0a.67.67,0,0,0,0,.2,1,1,0,0,0,0,.1v0h0a.74.74,0,0,0,.2.23l.06,0a.75.75,0,0,0,.31.08h25.49a.63.63,0,0,0,.31-.09l.06,0a.6.6,0,0,0,.2-.22l0,0v0a.31.31,0,0,0,0-.1.74.74,0,0,0,0-.21h0a.65.65,0,0,0-.14-.29l0,0c0-.06-4.6-4.93-4.6-8.14l0-105.43c0-1.9,0-3.08,0-3.82h14.73V161.56c0,3.19-4.57,8.06-4.61,8.12l0,0a.65.65,0,0,0-.14.29h0a.74.74,0,0,0,0,.21,1,1,0,0,0,0,.1s0,0,0,0l0,0a.53.53,0,0,0,.2.22l0,0a.7.7,0,0,0,.32.09H170.2a.84.84,0,0,0,.32-.08s0,0,0,0a.74.74,0,0,0,.2-.23h0v0a.31.31,0,0,0,.05-.1.67.67,0,0,0,0-.2h0a.65.65,0,0,0-.14-.29,0,0,0,0,0,0,0c-.05-.05-4.59-4.94-4.59-8.13V50.94c0-9.47,6.68-17.3,7.59-18.32l.07,0a.58.58,0,0,0,.19-.48h0A.4.4,0,0,0,173.94,31.89Zm-41.51-8.78L144.3,21.2l-17,3.68L125,24.46Zm-24.28-1.39,16.74,2.85V40.12Zm29.53,148.09-12.66-5-10.17,3.85c1.45-1.86,3.37-4.78,3.37-7.11,0-2.11,0-103.62,0-109.6l5.28-3.62,1.47-2.7,0,119.18,1.2-.46Zm31.9,0-12.74-5,1.27-.47ZM156.8,45.63h0V164.85l-10,3.8c1.44-1.86,3.37-4.76,3.37-7.09V52l6.66-6.32-2.69,1.07-4.87,4.36H133.78L125,45.62l-7.64,5.44H101.91L95.79,46.6l-2.74-1V164.83l1.28-.47,11.46,5.45-12.74-5L83,168.64c1.46-1.86,3.38-4.75,3.38-7.08V50.94c0-6.16-2.63-11.56-4.89-15.06L93.05,45.6l32,0h31.8l6.44-6.81,8.18-5.66Z" transform="translate(-57.33 -20.2)"/><polygon class="cls-1" points="99.47 25.44 99.47 25.44 99.47 25.44 99.47 25.44"/></svg>