<svg id="Layer_1" data-name="Layer 1" xmlns="http://www.w3.org/2000/svg" viewBox="0 0 148.99 250"><defs><style>.cls-1{fill:#fff;}</style></defs><path class="cls-1" d="M152.86,208.47c-.37-2.43-.76-4.73-1-7,0-.28.44-.77.77-.9,1.37-.52,2.78-.92,4.16-1.41a6,6,0,0,0,1.1-.67,4.35,4.35,0,0,0-1-.8c-8.54-3.51-17.24-6.68-25.58-10.62-4.76-2.25-8.72-2-13.39.09-9.17,4.11-18.6,7.67-27.92,11.47a11.15,11.15,0,0,0-1.34.79c.85.63,1.61,1.14,2.33,1.71,3.93,3.14,5.43,7.45,5.51,12.26.12,7.29.15,14.58,0,21.87-.17,7.9-4.93,12.36-12,14-8.56,1.93-16.51,0-23.91-4.46a3.14,3.14,0,0,1-1.24-2.21c-.12-4-.12-8.11,0-12.17.08-4.6,1.66-8.42,6.2-10.34a11.63,11.63,0,0,1,3.91-1c3.45-.13,6.9,0,10.48,0v7.68h-8c-3.84,0-4.65.8-4.66,4.6,0,2.35-.09,4.7,0,7.05A2.29,2.29,0,0,0,68.29,240c4.85,2.11,9.84,3,15.07,1.51,3-.84,5-2.9,5.09-6,.1-7.93.11-15.87-.12-23.79-.12-4-3.93-6.77-8.82-6.93-5.1-.17-9.83,1.34-14.49,3.18-.85.34-1.7.71-2.8,1.18-.47-2.25-1-4.28-1.26-6.34-.06-.46.7-1.27,1.26-1.53,5.86-2.72,12-4.46,18.51-4a5.63,5.63,0,0,0,1-.15c-1.14-6.25-1.75-12.48-.64-18.75s4-11.73,7.71-17c-15-3.83-26.8-12.48-38.32-21.88,13.31-9.94,26.48-19.86,43.73-22.93L124.66,0c.6,2,1.11,3.64,1.54,5.27,1.27,4.83,2.54,9.66,3.76,14.5,1.86,7.34,3.6,14.7,5.51,22,2.4,9.19,4.94,18.34,7.37,27.53q5.26,19.88,10.46,39.78c.54,2,1,4.1,1.65,6.1a2.6,2.6,0,0,0,1.51,1.55c13,2.94,24.49,9.16,35.18,17,2.45,1.79,4.94,3.53,7.85,5.61-6.35,4.46-12.34,8.93-18.59,13a77,77,0,0,1-20.45,9.15c8.36,10.87,10.09,22.78,7.08,35.56,2.22.24,4.25.38,6.26.69,8.41,1.3,13.55,7.42,13.7,15.93.1,5.68-1.47,11-3,16.38-1,3.51-2.07,7-2.92,10.51-1.68,7-7.25,9.9-13.52,9.28-1.62-.17-3.19-.81-4.81-1s-2-1.26-2.17-2.66c-.58-4.9-1.23-9.78-1.85-14.68-.26-2.07-.74-2.5-2.8-2.55-.94,0-1.88,0-2.82-.06a3.52,3.52,0,0,1-.64-.19c0-2.1,0-4.3,0-6.51a1.23,1.23,0,0,1,.86-.81c2.56.22,5.26.1,7.63.91,3.84,1.3,5.07,4.77,5.52,8.5.4,3.38.73,6.77,1.11,10.15a9.83,9.83,0,0,0,.3,1.31h2.65a2.29,2.29,0,0,0,2.48-1.81c1.91-7.08,3.92-14.13,5.62-21.26a21.46,21.46,0,0,0,.15-6.84c-.41-4.39-4-7.47-9-7.33a74.33,74.33,0,0,0-11.61,1.67A51,51,0,0,0,152.86,208.47ZM120.14,54.52l-.82,0q-7.74,30.1-15.5,60.33l12.11-.64c4.23-.22,4.22-.22,4.23-4.5q.11-26.43.21-52.88A20.76,20.76,0,0,0,120.14,54.52Zm0,110.52c-1.4-.09-2.55-.15-3.71-.25-5.66-.46-11.32-.94-17-1.36a1.93,1.93,0,0,0-1.28.69c-4,4.51-7.08,9.55-8.12,15.55-.52,3-.48,6-.73,9.45l8.16-3.32c7.11-2.87,14.23-5.71,21.32-8.62a2.3,2.3,0,0,0,1.28-1.53C120.24,172.19,120.19,168.73,120.19,165Zm9-51.13,16.31.91c-5.31-20.61-10.56-41-15.8-61.34l-.51.09Zm30.38,75c.1-.67.21-1.12.23-1.57.43-8.72-2.56-16.19-8.2-22.72a2.76,2.76,0,0,0-2.6-1c-6.13.5-12.26,1-18.4,1.36-1.19.08-1.47.51-1.45,1.59.05,2.82.07,5.64,0,8.45a2.09,2.09,0,0,0,1.6,2.31c6.73,2.67,13.43,5.43,20.15,8.15C153.74,186.59,156.6,187.7,159.59,188.88Zm-39.43-65.75C105.88,121.7,76.06,129,71.89,135h48.27ZM177,134.92c-14.91-9.5-31-11.83-47.85-11.95,0,3.59.07,7,0,10.37,0,1.45.47,1.77,1.82,1.77,14.74-.05,29.49,0,44.23,0C175.59,135.07,176,135,177,134.92ZM72.7,144.09l-.08.36a9.74,9.74,0,0,0,1,.72,73.54,73.54,0,0,0,17.33,7.58c3.18.89,5.53.76,8-1.82s5.37-4.46,8.31-6.84Zm70.12,0-.36.64a4.43,4.43,0,0,1,.95.47c3.09,2.48,6.22,4.93,9.22,7.53a2.83,2.83,0,0,0,2.84.71A66.09,66.09,0,0,0,170.24,148c2.23-1.16,4.42-2.39,6.63-3.59l-.15-.33Zm-22.76,12v-9.33a85.17,85.17,0,0,0-12.66,8.57Zm9.3-.05,11.89-.68.2-.63-12.09-8.07Z" transform="translate(-50.51 0)"/><path class="cls-1" d="M106,197.89h7.8V200c0,11.11.15,22.22-.06,33.32-.1,5.3,2.65,7.92,7.08,8.63a22.7,22.7,0,0,0,12.71-1.83,2.31,2.31,0,0,0,1.48-2.56c-.06-12.57,0-25.15,0-37.73V198h7.7a8.19,8.19,0,0,1,.2,1.12c0,14.52,0,29,0,43.55a3.06,3.06,0,0,1-1.54,2.23,72.34,72.34,0,0,1-10.2,4.13,24.56,24.56,0,0,1-15.09-.34c-6.61-2.32-10-6.66-10.11-13.64-.15-12-.06-24-.06-36A8.56,8.56,0,0,1,106,197.89Z" transform="translate(-50.51 0)"/><circle class="cls-1" cx="143.57" cy="244.51" r="5.42"/></svg>