<svg xmlns="http://www.w3.org/2000/svg" viewBox="0 0 250 161.79"><defs><style>.cls-1{fill:#fab77b;}.cls-2{fill:#fff;}.cls-3{fill:#6fc9f3;}.cls-4{fill:#f17598;}.cls-5{fill:#b3d78f;}</style></defs><g id="Layer_2" data-name="Layer 2"><ellipse class="cls-1" cx="125" cy="80.9" rx="125" ry="80.9"/></g><g id="Layer_3" data-name="Layer 3"><ellipse class="cls-2" cx="125.38" cy="80.81" rx="108.8" ry="68.45"/></g><g id="Layer_4" data-name="Layer 4"><path class="cls-3" d="M90.25,106.54l-5.57,4.66C81.4,107,77.17,104.93,74,106a3.94,3.94,0,0,0-2.36,1.75c-1.23,2.4,1.16,6.79,6.36,10.78l10.78,10.54A21.35,21.35,0,0,1,92.39,148a17.38,17.38,0,0,1-9.63,10.17s-4.58,2.6-12.68,2.14c0,0-7.34-1-12.39-3.82l-10.7-8,5.66-4.89L62.82,151s2.9,2.44,5.88.76c0,0,2.37-1.07-1.15-6L50.36,125s-7.19-10.67,5.88-22.44c0,0,5.89-4.81,18.58-4C74.82,98.51,86.89,99.58,90.25,106.54Z" transform="translate(0 -44.1)"/></g><g id="Layer_5" data-name="Layer 5"><path class="cls-4" d="M139.48,100.73l-39.75-.62v60.21H123.5V148l14.37-.15s19-3.82,19.95-21.94C157.82,125.87,156.9,102.48,139.48,100.73Z" transform="translate(0 -44.1)"/><path class="cls-2" d="M122.89,142.92V106.38h14.45s11.81,2.22,12.95,19.34c0,0,.65,14.22-14.33,17.2Z" transform="translate(0 -44.1)"/></g><g id="Layer_6" data-name="Layer 6"><polygon class="cls-5" points="209.99 56.01 156.68 56.01 156.68 62.28 171.69 62.28 171.69 116.22 195.08 116.22 194.74 62.28 209.99 62.28 209.99 56.01"/></g></svg>