<svg id="Layer_1" data-name="Layer 1" xmlns="http://www.w3.org/2000/svg" viewBox="0 0 249.61 104.99"><defs><style>.cls-1{fill:#fff;}</style></defs><path class="cls-1" d="M179,120.78c-44.17-3.77-103.24-4.13-160.09-4.13-10.83,0-18.74.29-18.74.64s8.05.5,18.74,1c76.52,3.49,160.14,9,160.14,28.64,0,15.6-43.16,23.87-76.71,27.64-14.11,1.43-21.08,2.17-21.08,2.52s6.26.4,21.15.4c20,0,56.64-2.13,76.8-4.7,37.33-4.92,70.58-15.49,70.58-29.38C249.81,131,221.27,124.42,179,120.78Z" transform="translate(-0.19 -72.51)"/><path class="cls-1" d="M162.37,146.93c0-7.76-16.77-11.94-43.77-16.22-30.92-4.84-71.67-7.69-99.67-9-7.41-.36-18.74-.79-18.74-.43s7.91,1.14,18.74,2.35c44.46,4.92,99.7,13,99.7,25.44,0,10.54-36.43,16.49-51.25,18.41-10,1.29-23.44,2.89-23.44,3.25s15.17-.06,23.44-.48A474,474,0,0,0,118.53,165C142.61,160.89,162.37,154.2,162.37,146.93Z" transform="translate(-0.19 -72.51)"/><polygon class="cls-1" points="12.47 40.13 21.56 40.13 21.56 7.48 33.98 7.48 33.98 0.42 0 0.42 0 7.48 12.47 7.48 12.47 40.13"/><path class="cls-1" d="M46.8,94.53a13.19,13.19,0,0,1,7.93-2.44c3.44,0,6.18.9,6.18,4.4v16.15h8.72V93c0-5.42-4.75-8.12-11.73-8.12a23.71,23.71,0,0,0-11.1,2.44h-.21V72.51l-8.51.42v39.71H46.8Z" transform="translate(-0.19 -72.51)"/><rect class="cls-1" x="114.03" y="13.19" width="8.77" height="26.94"/><path class="cls-1" d="M187.35,113.43c5.29,0,10.68-1.22,12-2.23l.63-5.46h-.26c-2.59,1-6.5,1.32-10.2,1.32-5.87,0-11.37-.79-12.58-5h23.67a19.11,19.11,0,0,0,.22-3.92c-.27-7.81-5.8-13.28-16.65-13.28-9.46,0-16.07,5.47-16.07,14C168.06,109.24,175.36,113.43,187.35,113.43Zm-2.43-22.62c4.89,0,7.19,2.51,7.19,6H177C177,93.69,179.91,90.81,184.92,90.81Z" transform="translate(-0.19 -72.51)"/><path class="cls-1" d="M87.73,113.43c5.65,0,9.32-2.71,10.56-4.86h.12a8.24,8.24,0,0,0,.63,4.07h8.35c-.85-2.28-.58-10.25-.58-12.37V85.7h-5.67c-1.9,0-3.79-.83-9.55-.83-9.83,0-17,5.69-17,15.82C74.63,108.34,80.33,113.43,87.73,113.43Zm5.55-21.86a15.38,15.38,0,0,1,5.18.75v6c0,4-2.8,8.28-8.09,8.28-3.64,0-7.07-2-7.07-6.64S86.83,91.57,93.28,91.57Z" transform="translate(-0.19 -72.51)"/><polygon class="cls-1" points="238.78 13.19 229.28 13.19 220.24 27.99 219.98 27.99 210.93 13.19 201.44 13.19 220.11 40.82 238.78 13.19"/><path class="cls-1" d="M164.51,101.51c0-5.51-3.64-9-11.5-9.64v-.26c2.85-.59,8.49-2.28,8.49-8.74,0-6.15-5.38-10.23-18-10.23-3.26,0-6.32,0-13.07.64v39.36a150.78,150.78,0,0,0,15.34.63C157.7,113.27,164.51,108.61,164.51,101.51Zm-25-22.72c.84-.11,2.64-.16,3.9-.16,4.7,0,8.6,1.64,8.6,5,0,3.71-2.53,5.67-9,5.67h-3.48Zm0,16.37h6.12c6.38,0,9.44,1.69,9.44,5.88,0,3.12-2.17,6.09-9.34,6.09-2,0-4.59-.06-6.22-.16Z" transform="translate(-0.19 -72.51)"/><path class="cls-1" d="M118.63,83.13A5.17,5.17,0,1,0,113.47,78,5.17,5.17,0,0,0,118.63,83.13Z" transform="translate(-0.19 -72.51)"/></svg>