<svg id="Layer_2" data-name="Layer 2" xmlns="http://www.w3.org/2000/svg" viewBox="0 0 592.67 238.62"><defs><style>.cls-1{fill:#f3cc3b;}.cls-2{fill:#fff;}</style></defs><rect class="cls-1" x="76.55" y="83.41" width="10" height="29"/><rect class="cls-1" x="57.55" y="83.41" width="10" height="29"/><rect class="cls-1" x="95.55" y="83.41" width="10" height="29"/><polygon class="cls-2" points="46.6 202.88 43.2 193.48 117.93 166.12 121.32 175.52 46.6 202.88"/><polygon class="cls-2" points="46.6 222.88 43.2 213.48 117.93 186.12 121.32 195.52 46.6 222.88"/><polygon class="cls-2" points="58.23 238.62 54.83 229.22 106.3 210.38 109.7 219.77 58.23 238.62"/><path class="cls-2" d="M187.31,120.09h-9.94v43.62a56,56,0,0,0,9.94-9.56Z" transform="translate(-62.45 -36.59)"/><path class="cls-2" d="M144.69,36.59c-45.35,0-82.24,37-82.24,82.5a83.67,83.67,0,0,0,40.49,71.25l8.83-3.23v-67h-9.94v57.47a73.48,73.48,0,0,1-29.44-58.47,72.48,72.48,0,0,1,72.3-72.5c39.71,0,72,32.53,72,72.5a72.91,72.91,0,0,1-41.28,65.53l-70,25.44,3.38,9.41L179,193.94l.43-.18a82.94,82.94,0,0,0,47.18-74.67C226.65,73.6,189.88,36.59,144.69,36.59Z" transform="translate(-62.45 -36.59)"/><path class="cls-2" d="M306.52,139.68v67.68H287.81V139.68H264v-16.2h66.25v16.2Zm60.24,32.88v34.8h-18v-89h18V150q8.16-8.28,18.3-8.28a22.86,22.86,0,0,1,17.1,7.2q7,7.2,7,19.2v39.24h-18V172.08q0-14.88-10.91-14.88a13.08,13.08,0,0,0-9.42,3.9Q366.76,165,366.76,172.56Zm83.88,34.8h-18V142.8h18Zm42.24-36v36h-18V142.8h18V150q8.16-8.28,18.36-8.28a22.73,22.73,0,0,1,17.1,7.2q6.9,7.2,6.9,19.2v39.24h-18V170.88q0-14.88-10.92-14.88a13.1,13.1,0,0,0-9.42,3.9Q492.88,163.8,492.88,171.36Zm96.84,21q9,0,16.2-9l10.68,12q-12.48,13-27,13t-24.54-9.18q-10-9.18-10-24T565.18,151a34.4,34.4,0,0,1,24.06-9.3,37.5,37.5,0,0,1,14.1,2.88,35.65,35.65,0,0,1,12.54,8.52l-9.36,12.24a21.27,21.27,0,0,0-7.62-5.76,21.51,21.51,0,0,0-8.94-2,17.52,17.52,0,0,0-12.18,4.62q-5.1,4.62-5.1,12.84t5.1,12.78A17.35,17.35,0,0,0,589.72,192.36Zm47.34,12.9a10.72,10.72,0,1,1,7.5,3.06A10.2,10.2,0,0,1,637.06,205.26Z" transform="translate(-62.45 -36.59)"/><path class="cls-2" d="M434.14,133.58a10.72,10.72,0,1,1,7.5,3.06A10.2,10.2,0,0,1,434.14,133.58Z" transform="translate(-62.45 -36.59)"/></svg>